<?xml version="1.0" standalone="no"?><!DOCTYPE svg PUBLIC "-//W3C//DTD SVG 1.1//EN" "http://www.w3.org/Graphics/SVG/1.1/DTD/svg11.dtd"><svg height="1024" node-id="1" sillyvg="true" template-height="1024" template-width="1024" version="1.1" viewBox="0 0 1024 1024" width="1024" xmlns="http://www.w3.org/2000/svg" xmlns:xlink="http://www.w3.org/1999/xlink"><defs node-id="34"></defs><path d="M 367.40 832.90 L 81.20 940.20 L 81.20 189.10 L 367.40 81.80 Z" fill="#aee6f5" fill-rule="nonzero" node-id="38" stroke="none" target-height="858.4" target-width="286.2" target-x="81.2" target-y="81.8"></path><path d="M 760.80 600.40 L 760.60 608.90 L 760.00 617.20 L 759.00 625.30 L 757.50 633.20 L 755.70 641.00 L 752.90 650.70 L 749.50 660.00 L 745.60 669.00 L 741.10 677.80 L 736.10 686.20 L 730.70 694.30 L 724.70 702.00 L 718.40 709.40 L 711.50 716.40 L 704.30 722.90 L 696.70 729.00 L 688.70 734.60 L 680.40 739.70 L 671.80 744.40 L 662.80 748.50 L 653.50 752.10 L 653.50 448.80 L 662.80 452.40 L 671.80 456.50 L 680.40 461.10 L 688.70 466.30 L 696.70 471.90 L 704.30 478.00 L 711.50 484.50 L 718.40 491.50 L 724.70 498.80 L 730.70 506.50 L 736.10 514.60 L 741.10 523.10 L 745.60 531.80 L 749.50 540.90 L 752.90 550.20 L 755.70 559.80 L 757.50 567.60 L 759.00 575.60 L 760.00 583.70 L 760.60 592.00 L 760.80 600.40 Z" fill="#aee6f5" fill-rule="nonzero" node-id="40" stroke="none" target-height="303.3" target-width="107.29999" target-x="653.5" target-y="448.8"></path><path d="M 824.90 876.00 L 653.50 940.20 L 653.50 826.70 L 664.90 823.70 L 676.10 820.10 L 686.90 816.10 L 697.50 811.40 L 707.90 806.30 L 717.90 800.70 L 727.60 794.60 L 737.10 788.00 L 824.90 876.00 Z" fill="#35c1e6" fill-rule="nonzero" node-id="42" stroke="none" target-height="152.20001" target-width="171.40002" target-x="653.5" target-y="788"></path><path d="M 939.70 81.80 L 939.70 832.90 L 898.40 848.50 L 787.50 737.60 L 794.30 727.80 L 800.60 717.70 L 806.40 707.20 L 811.70 696.40 L 815.50 687.50 L 818.90 678.50 L 822.00 669.30 L 824.70 659.90 L 827.00 650.30 L 828.90 640.60 L 830.40 630.80 L 831.50 620.90 L 832.20 610.70 L 832.40 600.40 L 832.10 589.40 L 831.40 578.50 L 830.10 567.90 L 828.40 557.40 L 826.30 547.10 L 823.60 536.90 L 820.50 526.90 L 817.00 517.10 L 813.10 507.60 L 808.80 498.20 L 804.00 489.10 L 798.90 480.20 L 793.50 471.60 L 787.60 463.20 L 781.40 455.10 L 774.80 447.30 L 768.00 439.80 L 760.80 432.60 L 753.30 425.70 L 745.50 419.10 L 737.40 412.90 L 729.00 407.00 L 720.40 401.60 L 711.50 396.40 L 702.40 391.70 L 693.00 387.30 L 683.50 383.40 L 673.70 379.90 L 663.80 376.80 L 653.50 374.20 L 653.50 189.10 L 939.70 81.80 Z" fill="#aee6f5" fill-rule="nonzero" node-id="44" stroke="none" target-height="766.7" target-width="286.2" target-x="653.5" target-y="81.8"></path><path d="M 653.50 826.70 L 653.50 940.20 L 367.40 832.90 L 367.40 600.40 L 367.60 611.50 L 368.40 622.30 L 369.60 633.00 L 371.30 643.40 L 373.50 653.70 L 376.20 664.00 L 379.30 674.00 L 382.80 683.80 L 386.70 693.30 L 391.00 702.70 L 395.80 711.90 L 400.90 720.80 L 406.40 729.40 L 412.20 737.70 L 418.50 745.80 L 425.00 753.70 L 431.90 761.20 L 439.10 768.40 L 446.60 775.30 L 454.50 781.90 L 462.60 788.10 L 470.90 793.90 L 479.60 799.40 L 488.50 804.50 L 497.60 809.30 L 507.00 813.60 L 516.50 817.60 L 526.30 821.00 L 536.30 824.10 L 546.60 826.80 L 556.90 829.00 L 567.30 830.70 L 578.00 831.90 L 588.80 832.70 L 599.90 832.90 L 611.10 832.70 L 622.00 831.90 L 632.70 830.60 L 643.20 828.90 L 653.50 826.70 Z" fill="#35c1e6" fill-rule="nonzero" node-id="46" stroke="none" target-height="339.8" target-width="286.1" target-x="367.4" target-y="600.4"></path><path d="M 653.50 189.10 L 653.50 374.20 L 636.10 370.70 L 627.20 369.50 L 609.10 368.10 L 599.90 367.90 L 588.80 368.20 L 578.00 368.90 L 567.30 370.20 L 556.90 371.90 L 546.60 374.10 L 536.30 376.70 L 526.30 379.80 L 516.50 383.30 L 507.00 387.20 L 497.60 391.60 L 488.50 396.30 L 479.60 401.40 L 470.90 406.90 L 462.60 412.80 L 454.50 419.00 L 446.60 425.60 L 439.10 432.50 L 431.90 439.70 L 425.00 447.20 L 418.50 455.00 L 412.20 463.10 L 406.40 471.50 L 400.90 480.10 L 395.80 489.00 L 391.00 498.20 L 386.70 507.50 L 382.80 517.10 L 379.30 526.90 L 376.20 536.90 L 373.50 547.10 L 371.40 557.40 L 369.60 567.90 L 368.40 578.50 L 367.70 589.40 L 367.40 600.40 L 367.40 81.80 L 653.50 189.10 Z" fill="#35c1e6" fill-rule="nonzero" node-id="48" stroke="none" target-height="518.60004" target-width="286.1" target-x="367.4" target-y="81.8"></path><path d="M 653.50 448.80 L 653.50 752.10 L 645.10 754.90 L 636.40 757.20 L 627.50 759.00 L 618.40 760.30 L 609.30 761.10 L 599.90 761.40 L 591.00 761.10 L 582.20 760.40 L 573.70 759.30 L 565.30 757.70 L 557.10 755.60 L 549.00 753.20 L 541.10 750.30 L 533.40 747.00 L 525.90 743.40 L 518.70 739.40 L 511.60 735.00 L 504.80 730.30 L 498.30 725.30 L 492.10 719.90 L 486.10 714.20 L 480.40 708.30 L 475.00 702.00 L 470.00 695.50 L 465.30 688.70 L 460.90 681.70 L 456.90 674.40 L 453.30 666.90 L 450.00 659.30 L 447.20 651.40 L 444.70 643.20 L 442.60 635.00 L 441.00 626.60 L 439.90 618.10 L 439.20 609.40 L 438.90 600.40 L 439.20 591.50 L 439.90 582.80 L 441.00 574.20 L 442.60 565.90 L 444.70 557.60 L 447.20 549.50 L 450.00 541.60 L 453.30 533.90 L 456.90 526.50 L 460.90 519.20 L 465.30 512.10 L 470.00 505.40 L 475.00 498.80 L 480.40 492.60 L 486.10 486.60 L 492.10 480.90 L 498.30 475.60 L 504.80 470.50 L 511.60 465.80 L 518.70 461.40 L 525.90 457.40 L 533.40 453.80 L 541.10 450.60 L 549.00 447.70 L 557.10 445.20 L 565.30 443.20 L 573.70 441.60 L 582.20 440.40 L 591.00 439.70 L 599.90 439.50 L 609.30 439.70 L 618.40 440.50 L 627.50 441.80 L 636.40 443.70 L 645.10 446.00 L 653.50 448.80 Z" fill="#35c1e6" fill-rule="nonzero" node-id="50" stroke="none" target-height="321.90002" target-width="214.6" target-x="438.9" target-y="439.5"></path><path d="M 930.80 880.70 L 787.50 737.60 L 794.30 727.80 L 800.60 717.70 L 806.40 707.20 L 811.70 696.40 L 815.50 687.50 L 818.90 678.50 L 822.00 669.30 L 824.70 659.90 L 827.00 650.30 L 828.90 640.60 L 830.40 630.80 L 831.50 620.90 L 832.20 610.70 L 832.40 600.40 L 832.10 589.40 L 831.40 578.50 L 830.10 567.90 L 828.40 557.40 L 826.30 547.10 L 823.60 536.90 L 820.50 526.90 L 817.00 517.10 L 813.10 507.60 L 808.80 498.20 L 804.00 489.10 L 798.90 480.20 L 793.50 471.60 L 787.60 463.20 L 781.40 455.10 L 774.80 447.30 L 768.00 439.80 L 760.80 432.60 L 753.30 425.70 L 745.50 419.10 L 737.40 412.90 L 729.00 407.00 L 720.40 401.60 L 711.50 396.40 L 702.40 391.70 L 693.00 387.30 L 683.50 383.40 L 673.70 379.90 L 663.80 376.80 L 653.50 374.20 L 636.10 370.70 L 618.20 368.60 L 599.90 367.90 L 588.80 368.20 L 578.00 368.90 L 567.30 370.20 L 556.90 371.90 L 546.60 374.10 L 536.30 376.70 L 526.30 379.80 L 516.50 383.30 L 507.00 387.20 L 497.60 391.60 L 488.50 396.30 L 479.60 401.40 L 470.90 406.90 L 462.60 412.80 L 454.50 419.00 L 446.60 425.60 L 439.10 432.50 L 431.90 439.70 L 425.00 447.20 L 418.50 455.00 L 412.20 463.10 L 406.40 471.50 L 400.90 480.10 L 395.80 489.00 L 391.00 498.20 L 386.70 507.50 L 382.80 517.10 L 379.30 526.90 L 376.20 536.90 L 373.50 547.10 L 371.40 557.40 L 369.60 567.90 L 368.40 578.50 L 367.70 589.40 L 367.40 600.40 L 367.70 611.50 L 368.40 622.30 L 369.60 633.00 L 371.40 643.40 L 373.50 653.70 L 376.20 664.00 L 379.30 674.00 L 382.80 683.80 L 386.70 693.30 L 391.00 702.70 L 395.80 711.80 L 400.90 720.70 L 406.40 729.40 L 412.20 737.70 L 418.50 745.80 L 425.00 753.70 L 431.90 761.20 L 439.10 768.40 L 446.60 775.30 L 454.50 781.80 L 462.60 788.10 L 470.90 793.90 L 479.60 799.40 L 488.50 804.50 L 497.60 809.30 L 507.00 813.60 L 516.50 817.50 L 526.30 821.00 L 536.30 824.10 L 546.60 826.80 L 556.90 829.00 L 567.30 830.70 L 578.00 831.90 L 588.80 832.70 L 599.90 832.90 L 611.10 832.60 L 622.00 831.90 L 632.80 830.60 L 643.30 828.90 L 653.50 826.70 L 664.90 823.70 L 676.10 820.10 L 686.90 816.10 L 697.50 811.40 L 707.90 806.30 L 717.90 800.70 L 727.60 794.60 L 737.10 788.00 L 880.10 931.30 L 883.90 934.50 L 887.80 937.10 L 891.90 939.10 L 896.30 940.50 L 900.80 941.40 L 905.40 941.70 L 910.00 941.40 L 914.50 940.50 L 918.90 939.10 L 925.10 935.90 L 928.00 933.80 L 930.80 931.30 L 934.00 927.60 L 936.60 923.60 L 938.60 919.50 L 940.10 915.00 L 940.90 910.60 L 941.20 906.00 L 940.90 901.40 L 940.10 896.90 L 938.60 892.50 L 936.60 888.30 L 934.00 884.40 L 930.80 880.70 Z M 653.50 752.10 L 645.10 754.90 L 636.40 757.20 L 627.50 759.00 L 618.40 760.30 L 609.30 761.10 L 599.90 761.40 L 591.00 761.10 L 582.20 760.40 L 573.70 759.30 L 565.30 757.70 L 557.10 755.60 L 549.00 753.20 L 541.10 750.30 L 533.40 747.00 L 525.90 743.40 L 518.70 739.40 L 511.60 735.00 L 504.80 730.30 L 498.30 725.30 L 492.10 719.90 L 486.10 714.20 L 480.40 708.30 L 475.00 702.00 L 470.00 695.50 L 465.30 688.70 L 460.90 681.70 L 456.90 674.40 L 453.30 666.90 L 450.00 659.30 L 447.20 651.40 L 444.70 643.20 L 442.60 635.00 L 441.00 626.60 L 439.90 618.10 L 439.20 609.40 L 438.90 600.40 L 439.20 591.50 L 439.90 582.80 L 441.00 574.20 L 442.60 565.90 L 444.70 557.60 L 447.20 549.50 L 450.00 541.60 L 453.30 533.90 L 456.90 526.50 L 460.90 519.20 L 465.30 512.10 L 470.00 505.40 L 475.00 498.80 L 480.40 492.60 L 486.10 486.60 L 492.10 480.90 L 498.30 475.60 L 504.80 470.50 L 511.60 465.80 L 518.70 461.40 L 525.90 457.40 L 533.40 453.80 L 541.10 450.60 L 549.00 447.70 L 557.10 445.20 L 565.30 443.20 L 573.70 441.60 L 582.20 440.40 L 591.00 439.70 L 599.90 439.50 L 609.30 439.70 L 618.50 440.50 L 627.50 441.80 L 636.40 443.70 L 645.10 446.00 L 653.50 448.80 L 662.80 452.40 L 671.80 456.50 L 680.40 461.10 L 688.70 466.30 L 696.70 471.90 L 704.30 478.00 L 711.50 484.50 L 718.40 491.50 L 724.70 498.80 L 730.70 506.50 L 736.10 514.60 L 741.10 523.10 L 745.60 531.80 L 749.50 540.90 L 752.90 550.20 L 755.70 559.90 L 757.50 567.70 L 759.00 575.60 L 760.00 583.70 L 760.60 592.00 L 760.80 600.40 L 760.60 608.90 L 760.00 617.20 L 759.00 625.30 L 757.50 633.20 L 755.70 641.00 L 752.90 650.70 L 749.50 660.00 L 745.60 669.00 L 741.10 677.80 L 736.10 686.20 L 730.70 694.30 L 724.70 702.00 L 718.40 709.40 L 711.50 716.40 L 704.30 722.90 L 696.70 729.00 L 688.70 734.60 L 680.40 739.70 L 671.80 744.40 L 662.80 748.50 L 653.50 752.10 Z" fill="#f43131" fill-rule="nonzero" node-id="52" stroke="none" target-height="573.80005" target-width="573.80005" target-x="367.4" target-y="367.9"></path><g node-id="103"><path d="M 81.20 958.10 L 78.50 957.90 L 75.90 957.30 L 73.40 956.30 L 71.00 954.90 L 68.80 953.10 L 66.90 951.00 L 65.40 948.50 L 64.30 945.90 L 63.60 943.20 L 63.30 940.20 L 63.30 761.40 L 63.60 758.10 L 64.50 755.10 L 65.80 752.40 L 67.60 749.90 L 69.70 747.70 L 72.20 746.00 L 75.00 744.60 L 78.00 743.80 L 81.20 743.50 L 84.50 743.80 L 87.50 744.60 L 90.20 746.00 L 92.80 747.70 L 94.90 749.90 L 96.70 752.40 L 98.00 755.10 L 98.80 758.10 L 99.10 761.40 L 99.10 914.40 L 349.50 820.50 L 349.50 107.60 L 99.10 201.50 L 99.10 689.90 L 98.80 693.10 L 98.00 696.10 L 96.70 698.90 L 94.90 701.40 L 92.80 703.50 L 90.20 705.30 L 87.50 706.60 L 84.50 707.40 L 81.20 707.70 L 78.00 707.40 L 75.00 706.60 L 72.20 705.30 L 69.70 703.50 L 67.60 701.40 L 65.80 698.90 L 64.50 696.10 L 63.60 693.10 L 63.30 689.90 L 63.30 189.10 L 64.00 184.20 L 65.90 179.90 L 68.80 176.20 L 72.70 173.40 L 74.90 172.30 L 361.10 65.00 L 363.90 64.20 L 366.70 63.90 L 369.60 64.00 L 372.40 64.60 L 375.00 65.60 L 377.60 67.10 L 379.80 68.90 L 381.70 71.00 L 383.20 73.50 L 384.30 76.10 L 385.00 78.80 L 385.30 81.80 L 385.30 832.90 L 384.60 837.80 L 382.70 842.10 L 379.80 845.80 L 375.90 848.60 L 373.70 849.70 L 87.50 957.00 L 84.40 957.80 L 81.20 958.10 Z" fill="#22104f" fill-rule="nonzero" group-id="1" node-id="56" stroke="none" target-height="894.19995" target-width="322" target-x="63.3" target-y="63.9"></path></g><g node-id="104"><path d="M 653.50 770.00 L 650.80 769.80 L 648.10 769.10 L 645.60 768.10 L 643.20 766.70 L 641.00 764.80 L 639.10 762.70 L 637.70 760.30 L 636.60 757.70 L 635.90 755.00 L 635.70 752.10 L 635.70 448.80 L 635.90 445.90 L 636.60 443.10 L 637.60 440.50 L 639.10 438.20 L 641.00 436.00 L 643.20 434.20 L 645.70 432.70 L 648.30 431.70 L 651.10 431.10 L 653.90 430.90 L 656.70 431.20 L 659.50 431.90 L 668.00 435.10 L 676.20 438.70 L 684.20 442.70 L 691.80 447.10 L 699.30 451.80 L 706.50 456.90 L 713.40 462.20 L 720.00 467.90 L 726.30 473.90 L 732.30 480.20 L 738.00 486.80 L 743.30 493.60 L 748.30 500.70 L 753.00 508.00 L 757.30 515.60 L 761.30 523.40 L 764.80 531.30 L 768.00 539.40 L 770.80 547.70 L 773.20 556.20 L 775.20 564.80 L 776.70 573.50 L 777.80 582.30 L 778.50 591.30 L 778.70 600.40 L 778.50 609.60 L 777.80 618.50 L 776.70 627.40 L 775.20 636.10 L 773.20 644.60 L 770.80 653.10 L 768.00 661.50 L 764.80 669.60 L 761.30 677.50 L 757.30 685.30 L 753.00 692.80 L 748.30 700.10 L 743.30 707.20 L 738.00 714.00 L 732.30 720.60 L 726.30 726.90 L 720.00 732.90 L 713.40 738.60 L 706.50 744.00 L 699.30 749.10 L 691.80 753.80 L 684.20 758.10 L 676.20 762.10 L 668.00 765.70 L 659.50 769.00 L 656.50 769.70 L 653.50 770.00 Z M 671.40 476.60 L 671.40 724.30 L 679.50 719.30 L 687.10 713.90 L 694.20 708.00 L 701.00 701.60 L 707.40 694.80 L 713.20 687.70 L 718.60 680.20 L 723.60 672.30 L 728.00 664.20 L 731.80 655.70 L 735.10 647.00 L 737.90 638.10 L 740.10 628.90 L 741.70 619.60 L 742.60 610.10 L 743.00 600.40 L 742.60 590.70 L 741.70 581.20 L 740.10 571.90 L 737.90 562.80 L 735.10 553.80 L 731.80 545.10 L 728.00 536.70 L 723.60 528.50 L 718.60 520.70 L 713.20 513.20 L 707.40 506.00 L 701.00 499.30 L 694.20 492.90 L 687.10 487.00 L 679.50 481.60 L 671.40 476.60 Z" fill="#22104f" fill-rule="nonzero" group-id="2" node-id="61" stroke="none" target-height="339.1" target-width="143" target-x="635.7" target-y="430.9"></path></g><g node-id="105"><path d="M 653.50 958.10 L 650.90 957.90 L 648.20 957.30 L 645.70 956.30 L 643.40 954.90 L 641.10 953.10 L 639.20 951.00 L 637.70 948.50 L 636.60 945.90 L 635.90 943.20 L 635.70 940.20 L 635.70 826.70 L 635.90 823.90 L 636.50 821.30 L 637.40 818.90 L 640.40 814.60 L 644.50 811.30 L 646.80 810.10 L 649.50 809.30 L 659.80 806.60 L 669.90 803.40 L 679.80 799.70 L 689.50 795.50 L 699.10 790.80 L 708.40 785.60 L 717.50 779.80 L 729.00 772.10 L 731.60 771.00 L 734.30 770.40 L 737.10 770.20 L 739.80 770.40 L 742.50 771.00 L 745.10 772.10 L 747.50 773.50 L 749.70 775.40 L 837.60 863.40 L 839.50 865.70 L 841.00 868.20 L 842.10 871.00 L 842.70 873.90 L 842.80 876.80 L 842.40 879.80 L 841.50 882.70 L 840.20 885.40 L 838.40 887.70 L 836.30 889.80 L 833.90 891.50 L 831.20 892.80 L 659.80 957.00 L 656.70 957.80 L 653.50 958.10 Z M 671.40 840.40 L 671.40 914.40 L 792.60 869.00 L 734.90 811.20 L 724.80 817.40 L 714.50 823.00 L 704.00 828.20 L 693.40 832.80 L 682.50 836.80 L 671.40 840.40 Z" fill="#22104f" fill-rule="nonzero" group-id="3" node-id="66" stroke="none" target-height="187.89996" target-width="207.09998" target-x="635.7" target-y="770.2"></path></g><g node-id="106"><path d="M 898.40 866.40 L 896.10 866.20 L 891.60 865.00 L 887.60 862.70 L 885.80 861.10 L 774.90 750.30 L 773.00 748.00 L 771.50 745.60 L 770.50 743.00 L 769.80 740.30 L 769.60 737.60 L 769.80 734.80 L 770.50 732.10 L 771.60 729.50 L 773.10 727.00 L 779.60 717.60 L 785.60 708.00 L 791.00 698.10 L 795.90 688.00 L 800.20 677.70 L 804.00 667.10 L 807.10 656.40 L 809.80 645.50 L 811.80 634.40 L 813.30 623.30 L 814.20 611.90 L 814.50 600.40 L 814.30 590.40 L 813.60 580.50 L 812.50 570.80 L 811.00 561.20 L 809.00 551.80 L 806.60 542.40 L 803.90 533.30 L 800.70 524.30 L 797.20 515.50 L 793.30 506.90 L 789.00 498.50 L 784.40 490.30 L 779.40 482.30 L 774.10 474.60 L 768.40 467.10 L 762.40 459.80 L 756.10 452.90 L 749.50 446.20 L 742.60 439.80 L 735.40 433.70 L 728.00 427.90 L 720.20 422.40 L 712.20 417.30 L 704.00 412.50 L 695.40 408.10 L 686.70 404.00 L 677.80 400.30 L 668.60 397.00 L 646.80 390.80 L 644.40 389.60 L 642.30 388.10 L 638.70 384.20 L 637.40 382.00 L 635.90 376.90 L 635.70 374.20 L 635.70 189.10 L 636.30 184.20 L 638.20 179.90 L 641.10 176.20 L 643.00 174.60 L 647.30 172.30 L 933.40 65.00 L 936.30 64.20 L 939.10 63.90 L 941.90 64.00 L 944.70 64.60 L 947.40 65.60 L 949.90 67.10 L 952.10 68.90 L 954.00 71.00 L 955.50 73.50 L 956.70 76.10 L 957.30 78.80 L 957.60 81.80 L 957.60 528.90 L 957.30 532.10 L 956.50 535.10 L 955.10 537.90 L 953.40 540.40 L 951.20 542.50 L 948.70 544.30 L 946.00 545.60 L 943.00 546.50 L 939.70 546.80 L 936.40 546.50 L 933.40 545.60 L 930.70 544.30 L 928.20 542.50 L 926.00 540.40 L 924.30 537.90 L 922.90 535.10 L 922.10 532.10 L 921.80 528.90 L 921.80 107.60 L 671.40 201.50 L 671.40 360.40 L 682.00 363.80 L 692.30 367.60 L 702.30 371.80 L 712.00 376.30 L 721.50 381.30 L 730.80 386.70 L 739.70 392.40 L 748.40 398.50 L 756.80 404.90 L 764.90 411.70 L 772.70 418.80 L 780.20 426.20 L 787.30 433.90 L 794.10 441.90 L 800.60 450.20 L 806.70 458.80 L 812.50 467.60 L 817.80 476.60 L 822.80 485.90 L 827.50 495.40 L 831.70 505.10 L 835.50 515.00 L 838.90 525.10 L 841.80 535.40 L 844.40 546.00 L 846.50 556.50 L 848.10 567.30 L 849.30 578.10 L 850.00 589.20 L 850.30 600.40 L 850.00 612.60 L 849.10 624.50 L 847.70 636.30 L 845.80 648.00 L 843.30 659.60 L 840.20 671.00 L 836.60 682.30 L 832.50 693.40 L 827.80 704.20 L 822.60 714.80 L 816.90 725.30 L 810.70 735.50 L 902.90 827.70 L 921.80 820.60 L 921.80 600.40 L 922.10 597.20 L 922.90 594.20 L 924.20 591.40 L 926.00 588.90 L 928.10 586.80 L 930.70 585.00 L 933.40 583.70 L 936.40 582.90 L 939.70 582.60 L 943.00 582.90 L 945.90 583.70 L 948.70 585.00 L 951.20 586.80 L 953.40 588.90 L 955.10 591.40 L 956.50 594.20 L 957.30 597.20 L 957.60 600.40 L 957.60 832.90 L 956.90 837.80 L 956.10 840.00 L 953.70 844.10 L 950.30 847.30 L 948.20 848.60 L 904.70 865.20 L 901.60 866.10 L 898.40 866.40 Z" fill="#22104f" fill-rule="nonzero" group-id="4" node-id="71" stroke="none" target-height="802.5" target-width="321.89996" target-x="635.7" target-y="63.9"></path></g><g node-id="107"><path d="M 653.50 958.10 L 650.40 957.80 L 647.30 957.00 L 361.10 849.70 L 356.80 847.40 L 353.40 844.10 L 350.90 840.00 L 350.20 837.80 L 349.50 832.90 L 349.50 600.40 L 349.80 597.20 L 350.60 594.20 L 351.90 591.40 L 353.70 588.90 L 355.80 586.80 L 358.30 585.00 L 361.10 583.70 L 364.10 582.90 L 367.40 582.60 L 370.60 582.90 L 373.60 583.70 L 376.40 585.00 L 378.90 586.80 L 381.00 588.90 L 382.80 591.40 L 384.10 594.20 L 384.90 597.20 L 385.30 600.40 L 385.50 610.50 L 386.20 620.40 L 387.30 630.10 L 388.80 639.70 L 390.70 649.20 L 393.10 658.60 L 395.90 667.80 L 399.10 676.70 L 402.60 685.50 L 406.50 694.20 L 410.80 702.60 L 415.50 710.80 L 420.50 718.80 L 425.80 726.50 L 431.50 734.00 L 437.50 741.30 L 443.80 748.30 L 450.40 754.90 L 457.30 761.30 L 464.60 767.40 L 472.00 773.20 L 479.80 778.70 L 487.80 783.80 L 496.10 788.60 L 504.70 793.00 L 513.40 797.10 L 522.40 800.70 L 531.60 804.00 L 541.10 806.90 L 550.80 809.40 L 553.90 810.50 L 556.70 811.90 L 559.10 813.90 L 561.10 816.20 L 562.70 818.70 L 563.80 821.60 L 564.50 824.60 L 564.60 827.70 L 564.20 830.90 L 563.10 834.00 L 561.70 836.70 L 559.70 839.10 L 557.40 841.20 L 554.90 842.80 L 552.00 843.90 L 549.00 844.60 L 545.90 844.70 L 542.70 844.30 L 532.50 841.70 L 522.60 838.70 L 512.90 835.40 L 503.40 831.70 L 494.20 827.70 L 482.90 822.10 L 471.90 816.00 L 461.40 809.40 L 451.20 802.30 L 441.40 794.70 L 432.00 786.70 L 423.10 778.30 L 414.60 769.40 L 406.50 760.10 L 399.00 750.50 L 391.90 740.50 L 385.30 730.10 L 385.30 820.50 L 635.60 914.40 L 635.60 848.30 L 619.10 850.10 L 615.80 849.90 L 612.80 849.30 L 609.90 848.20 L 607.30 846.60 L 605.00 844.70 L 603.00 842.30 L 601.50 839.60 L 600.50 836.70 L 599.90 833.50 L 600.00 830.20 L 600.60 827.20 L 601.70 824.30 L 603.30 821.70 L 605.30 819.40 L 607.60 817.50 L 610.30 815.90 L 613.20 814.90 L 633.30 812.50 L 652.00 808.90 L 654.60 808.80 L 657.30 809.20 L 659.90 809.90 L 662.30 811.10 L 664.60 812.60 L 666.60 814.40 L 668.30 816.50 L 669.60 818.80 L 670.60 821.30 L 671.40 826.70 L 671.40 940.20 L 671.20 943.20 L 670.50 945.90 L 669.40 948.50 L 667.80 951.00 L 666.00 953.10 L 663.70 954.90 L 661.40 956.30 L 658.80 957.30 L 656.20 957.90 L 653.50 958.10 Z" fill="#22104f" fill-rule="nonzero" group-id="5" node-id="76" stroke="none" target-height="375.5" target-width="321.90002" target-x="349.5" target-y="582.6"></path></g><g node-id="108"><path d="M 367.40 618.30 L 364.10 618.00 L 361.10 617.20 L 358.30 615.90 L 355.80 614.10 L 353.70 612.00 L 351.90 609.50 L 350.60 606.70 L 349.80 603.70 L 349.50 600.40 L 349.50 81.80 L 349.70 78.80 L 350.40 76.10 L 351.50 73.50 L 353.10 71.00 L 354.90 68.90 L 357.20 67.10 L 359.70 65.60 L 362.40 64.60 L 365.20 64.00 L 368.00 63.90 L 370.90 64.20 L 373.70 65.00 L 409.80 78.60 L 412.80 80.00 L 415.30 81.90 L 417.40 84.10 L 419.10 86.60 L 420.40 89.40 L 421.10 92.30 L 421.40 95.40 L 421.10 98.50 L 420.20 101.70 L 418.80 104.60 L 417.00 107.10 L 414.80 109.20 L 412.20 111.00 L 409.50 112.20 L 406.50 113.00 L 403.40 113.20 L 400.40 112.90 L 397.20 112.10 L 385.30 107.60 L 385.30 471.60 L 392.10 460.80 L 399.50 450.50 L 407.30 440.50 L 415.70 431.00 L 424.50 421.90 L 433.80 413.20 L 443.40 405.10 L 453.60 397.40 L 461.90 391.60 L 470.50 386.10 L 479.30 381.00 L 488.40 376.30 L 497.70 371.90 L 507.10 367.80 L 516.80 364.20 L 526.60 361.00 L 536.60 358.10 L 546.90 355.70 L 557.10 353.70 L 567.60 352.10 L 578.20 351.00 L 588.90 350.30 L 599.90 350.00 L 611.90 350.30 L 623.90 351.20 L 635.70 352.60 L 635.70 201.50 L 462.30 136.40 L 459.40 135.00 L 456.90 133.20 L 454.70 131.00 L 453.00 128.40 L 451.80 125.70 L 451.00 122.70 L 450.70 119.60 L 451.00 116.60 L 451.90 113.40 L 453.30 110.40 L 455.10 107.90 L 457.30 105.80 L 459.90 104.10 L 462.60 102.80 L 465.60 102.10 L 468.60 101.80 L 471.70 102.10 L 474.90 102.90 L 659.80 172.30 L 664.10 174.60 L 665.90 176.20 L 668.90 179.90 L 670.80 184.20 L 671.40 189.10 L 671.40 374.20 L 671.20 376.90 L 670.60 379.50 L 668.30 384.30 L 664.60 388.20 L 662.40 389.70 L 659.90 390.90 L 654.70 392.00 L 649.40 391.60 L 633.20 388.40 L 625.00 387.20 L 608.30 386.00 L 599.90 385.80 L 589.70 386.00 L 579.70 386.70 L 569.90 387.90 L 560.20 389.50 L 550.70 391.50 L 541.30 393.90 L 532.10 396.80 L 523.00 400.00 L 514.20 403.60 L 505.60 407.60 L 497.10 412.00 L 488.90 416.80 L 481.00 421.90 L 473.20 427.30 L 465.70 433.00 L 456.70 440.70 L 448.20 448.70 L 440.10 457.30 L 432.50 466.30 L 426.70 473.80 L 421.30 481.50 L 416.30 489.40 L 411.50 497.70 L 407.10 506.10 L 403.10 514.70 L 399.50 523.60 L 396.30 532.60 L 393.40 541.80 L 391.00 551.30 L 388.90 560.80 L 387.40 570.40 L 386.20 580.20 L 385.50 590.20 L 385.30 600.40 L 385.00 603.70 L 384.20 606.70 L 382.80 609.40 L 381.00 612.00 L 378.90 614.10 L 376.40 615.90 L 373.60 617.20 L 370.60 618.00 L 367.40 618.30 Z" fill="#22104f" fill-rule="nonzero" group-id="6" node-id="81" stroke="none" target-height="554.39996" target-width="321.90002" target-x="349.5" target-y="63.9"></path></g><g node-id="109"><path d="M 599.90 779.30 L 590.00 779.00 L 580.30 778.20 L 570.80 776.90 L 561.50 775.10 L 552.40 772.90 L 543.40 770.10 L 534.60 766.90 L 526.00 763.30 L 517.80 759.30 L 509.70 754.80 L 501.80 749.90 L 494.30 744.70 L 487.10 739.10 L 480.10 733.20 L 473.50 726.80 L 467.20 720.20 L 461.20 713.20 L 455.60 706.00 L 450.40 698.50 L 445.50 690.60 L 441.00 682.60 L 437.00 674.30 L 433.40 665.70 L 430.20 657.00 L 427.40 647.90 L 425.20 638.80 L 423.40 629.50 L 422.10 620.00 L 421.30 610.30 L 421.00 600.40 L 421.30 591.60 L 421.90 582.80 L 423.00 574.10 L 424.50 565.50 L 426.40 556.90 L 428.80 548.40 L 431.50 540.20 L 434.60 532.00 L 438.20 524.10 L 442.10 516.30 L 443.90 513.60 L 446.10 511.30 L 448.60 509.50 L 451.30 508.10 L 454.20 507.30 L 457.30 506.90 L 460.30 507.10 L 463.40 507.80 L 466.40 509.00 L 469.10 510.90 L 471.30 513.00 L 473.20 515.50 L 474.50 518.20 L 475.40 521.10 L 475.80 524.20 L 475.60 527.20 L 474.90 530.30 L 469.70 541.10 L 466.40 549.00 L 463.50 557.20 L 461.10 565.70 L 459.20 574.20 L 457.90 582.80 L 457.10 591.60 L 456.80 600.40 L 457.00 608.40 L 457.70 616.10 L 458.70 623.70 L 460.10 631.10 L 461.90 638.40 L 464.70 647.40 L 468.10 656.10 L 472.00 664.50 L 476.40 672.60 L 481.30 680.40 L 486.70 687.80 L 492.50 694.90 L 498.80 701.60 L 505.50 707.80 L 512.50 713.70 L 519.90 719.00 L 527.70 724.00 L 535.80 728.40 L 544.20 732.20 L 552.90 735.60 L 561.90 738.40 L 569.20 740.20 L 576.60 741.60 L 584.20 742.70 L 592.00 743.30 L 599.90 743.50 L 609.10 743.20 L 618.10 742.40 L 626.90 740.90 L 635.70 739.00 L 635.70 461.90 L 626.90 459.90 L 618.10 458.50 L 609.10 457.60 L 599.90 457.30 L 592.00 457.60 L 584.30 458.20 L 576.70 459.20 L 569.20 460.60 L 561.80 462.40 L 554.50 464.70 L 547.40 467.30 L 540.40 470.30 L 533.60 473.60 L 526.90 477.40 L 511.30 487.80 L 508.50 489.00 L 505.40 489.60 L 502.40 489.70 L 499.40 489.30 L 496.50 488.40 L 493.70 486.90 L 491.30 485.10 L 489.10 482.60 L 487.30 479.90 L 486.20 477.00 L 485.60 474.00 L 485.40 470.90 L 485.90 467.90 L 486.80 465.00 L 488.20 462.30 L 490.10 459.80 L 492.50 457.60 L 499.70 452.40 L 507.10 447.70 L 514.70 443.30 L 522.60 439.40 L 530.70 435.80 L 538.90 432.60 L 547.20 429.80 L 555.80 427.50 L 564.40 425.50 L 573.10 424.00 L 581.80 422.90 L 590.60 422.20 L 599.40 421.90 L 608.20 422.00 L 617.00 422.60 L 625.70 423.60 L 634.40 425.00 L 642.90 426.90 L 651.30 429.20 L 659.60 431.90 L 664.00 434.20 L 665.80 435.80 L 668.80 439.50 L 670.80 443.90 L 671.40 448.80 L 671.40 752.10 L 670.80 757.00 L 668.80 761.40 L 665.80 765.10 L 664.00 766.60 L 659.60 768.90 L 650.00 772.10 L 640.30 774.70 L 630.30 776.70 L 620.30 778.10 L 610.20 779.00 L 599.90 779.30 Z" fill="#22104f" fill-rule="nonzero" group-id="7" node-id="86" stroke="none" target-height="357.4" target-width="250.40002" target-x="421" target-y="421.9"></path></g><g node-id="110"><path d="M 905.40 959.60 L 900.00 959.30 L 894.80 958.50 L 889.70 957.30 L 884.80 955.50 L 880.10 953.30 L 875.60 950.60 L 871.40 947.50 L 867.50 943.90 L 734.90 811.20 L 725.80 816.80 L 716.50 822.00 L 707.10 826.70 L 697.60 831.00 L 687.80 834.90 L 677.90 838.40 L 667.80 841.50 L 648.40 846.10 L 638.90 847.80 L 629.20 849.10 L 619.10 850.10 L 615.80 849.90 L 612.80 849.30 L 610.00 848.20 L 607.30 846.60 L 605.00 844.70 L 603.10 842.30 L 601.50 839.60 L 600.50 836.70 L 599.90 833.50 L 600.00 830.20 L 600.60 827.20 L 601.70 824.30 L 603.30 821.70 L 605.30 819.40 L 607.60 817.50 L 610.30 815.90 L 613.20 814.90 L 616.50 814.40 L 625.10 813.60 L 641.40 811.10 L 659.60 806.60 L 669.80 803.40 L 679.70 799.70 L 689.50 795.50 L 699.00 790.80 L 708.40 785.60 L 717.50 779.80 L 729.00 772.10 L 731.60 771.00 L 734.30 770.40 L 737.10 770.20 L 739.80 770.40 L 742.50 771.00 L 745.10 772.10 L 747.50 773.50 L 749.70 775.40 L 894.50 920.20 L 898.50 922.50 L 902.90 923.60 L 907.10 923.70 L 911.40 922.80 L 915.90 920.50 L 919.60 916.90 L 922.00 912.90 L 923.20 908.40 L 923.30 906.00 L 922.70 901.30 L 920.90 897.00 L 918.10 893.30 L 774.90 750.30 L 773.00 748.00 L 771.50 745.60 L 770.50 743.00 L 769.80 740.30 L 769.60 737.60 L 769.80 734.80 L 770.50 732.10 L 771.60 729.50 L 773.10 727.00 L 779.60 717.60 L 785.60 708.00 L 791.00 698.10 L 795.90 688.00 L 800.20 677.70 L 804.00 667.10 L 807.10 656.40 L 809.80 645.50 L 811.80 634.40 L 813.30 623.30 L 814.20 611.90 L 814.50 600.40 L 814.30 590.40 L 813.60 580.50 L 812.50 570.80 L 811.00 561.20 L 809.00 551.80 L 806.60 542.40 L 803.90 533.30 L 800.70 524.30 L 797.20 515.50 L 793.30 506.90 L 789.00 498.50 L 784.40 490.30 L 779.40 482.30 L 774.10 474.60 L 768.40 467.10 L 762.40 459.80 L 756.10 452.90 L 749.50 446.20 L 742.60 439.80 L 735.40 433.70 L 728.00 427.90 L 720.20 422.40 L 712.20 417.30 L 704.00 412.50 L 695.40 408.10 L 686.70 404.00 L 677.80 400.30 L 668.60 397.00 L 659.10 394.10 L 641.40 389.80 L 625.00 387.30 L 608.30 386.00 L 599.90 385.80 L 589.70 386.10 L 579.70 386.80 L 569.90 387.90 L 560.20 389.50 L 550.70 391.50 L 541.30 393.90 L 532.00 396.80 L 523.00 400.00 L 514.20 403.60 L 505.60 407.70 L 497.10 412.10 L 488.90 416.80 L 480.90 421.90 L 473.20 427.30 L 465.70 433.00 L 456.70 440.70 L 448.20 448.70 L 440.10 457.30 L 432.50 466.30 L 426.70 473.80 L 421.30 481.50 L 416.20 489.40 L 411.50 497.70 L 407.10 506.10 L 403.10 514.80 L 399.50 523.60 L 396.20 532.60 L 393.40 541.80 L 390.90 551.30 L 388.90 560.80 L 387.30 570.40 L 386.20 580.20 L 385.50 590.20 L 385.30 600.40 L 385.50 610.50 L 386.20 620.40 L 387.30 630.10 L 388.80 639.70 L 390.80 649.20 L 393.10 658.60 L 395.90 667.80 L 399.10 676.70 L 402.60 685.50 L 406.50 694.20 L 410.80 702.60 L 415.50 710.80 L 420.50 718.80 L 425.80 726.50 L 431.50 734.00 L 437.50 741.30 L 443.80 748.30 L 450.40 754.90 L 457.30 761.30 L 464.60 767.40 L 472.10 773.20 L 479.80 778.70 L 487.80 783.80 L 496.10 788.60 L 504.70 793.00 L 513.40 797.10 L 522.40 800.70 L 531.60 804.00 L 553.90 810.50 L 556.70 811.90 L 559.10 813.90 L 561.10 816.20 L 562.70 818.70 L 563.90 821.60 L 564.50 824.60 L 564.60 827.70 L 564.20 830.90 L 563.10 834.00 L 561.70 836.70 L 559.70 839.10 L 557.40 841.20 L 554.90 842.80 L 552.00 843.90 L 549.00 844.60 L 545.90 844.70 L 542.70 844.30 L 531.30 841.30 L 520.30 838.00 L 509.60 834.10 L 499.10 829.80 L 488.90 825.10 L 478.90 819.90 L 469.20 814.30 L 459.80 808.40 L 450.80 802.00 L 442.10 795.30 L 433.60 788.10 L 425.50 780.70 L 417.80 772.90 L 410.50 764.80 L 403.40 756.30 L 396.80 747.50 L 390.60 738.50 L 384.80 729.20 L 379.30 719.60 L 374.30 709.80 L 369.70 699.70 L 365.60 689.50 L 361.90 679.00 L 358.70 668.30 L 355.90 657.30 L 353.60 646.30 L 351.80 635.10 L 350.60 623.70 L 349.80 612.20 L 349.50 600.40 L 349.80 588.50 L 350.60 576.90 L 351.90 565.40 L 353.80 554.20 L 356.10 543.10 L 359.00 532.10 L 362.30 521.30 L 366.10 510.80 L 370.30 500.50 L 375.00 490.40 L 380.10 480.50 L 385.60 470.90 L 391.50 461.70 L 397.90 452.60 L 404.60 443.90 L 411.70 435.50 L 419.10 427.40 L 426.80 419.60 L 434.90 412.20 L 443.40 405.10 L 452.10 398.40 L 461.10 392.10 L 470.40 386.20 L 480.00 380.70 L 489.90 375.50 L 499.90 370.80 L 510.20 366.60 L 520.70 362.80 L 531.50 359.50 L 542.50 356.70 L 553.60 354.30 L 564.90 352.50 L 576.30 351.10 L 588.00 350.30 L 599.90 350.00 L 619.50 350.80 L 638.80 353.00 L 657.70 356.80 L 669.00 359.70 L 680.00 363.10 L 690.70 367.00 L 701.20 371.30 L 711.30 376.00 L 721.30 381.20 L 731.00 386.80 L 740.30 392.80 L 749.30 399.10 L 758.00 405.90 L 766.40 413.00 L 774.50 420.50 L 782.20 428.30 L 789.50 436.40 L 796.50 444.80 L 803.10 453.60 L 809.30 462.60 L 815.10 471.90 L 820.50 481.50 L 825.50 491.30 L 830.10 501.30 L 834.20 511.60 L 837.90 522.10 L 841.10 532.80 L 843.90 543.70 L 846.20 554.70 L 847.90 565.80 L 849.20 577.20 L 850.00 588.70 L 850.30 600.40 L 850.00 612.50 L 849.10 624.50 L 847.70 636.30 L 845.80 648.00 L 843.30 659.60 L 840.20 671.00 L 836.60 682.30 L 832.50 693.30 L 827.80 704.20 L 822.60 714.80 L 816.90 725.20 L 810.70 735.50 L 943.40 868.00 L 947.00 872.00 L 950.10 876.20 L 952.80 880.70 L 955.00 885.40 L 956.80 890.30 L 958.10 895.40 L 958.80 900.60 L 959.10 906.00 L 958.80 911.40 L 958.10 916.60 L 956.80 921.60 L 955.00 926.60 L 952.80 931.30 L 950.10 935.70 L 947.00 940.00 L 943.40 944.00 L 939.40 947.50 L 935.20 950.60 L 930.80 953.30 L 926.00 955.50 L 921.10 957.30 L 916.00 958.50 L 910.80 959.30 L 905.40 959.60 Z M 599.90 779.30 L 590.00 779.00 L 580.30 778.20 L 570.80 776.90 L 561.50 775.10 L 552.40 772.90 L 543.40 770.10 L 534.60 766.90 L 526.00 763.30 L 517.80 759.30 L 509.70 754.80 L 501.80 749.90 L 494.30 744.70 L 487.10 739.10 L 480.10 733.20 L 473.50 726.80 L 467.20 720.20 L 461.20 713.20 L 455.60 706.00 L 450.40 698.50 L 445.50 690.60 L 441.00 682.60 L 437.00 674.30 L 433.40 665.70 L 430.20 657.00 L 427.40 647.90 L 425.20 638.80 L 423.40 629.50 L 422.10 620.00 L 421.30 610.30 L 421.00 600.40 L 421.30 591.60 L 421.90 582.80 L 423.00 574.10 L 424.50 565.50 L 426.40 556.90 L 428.80 548.40 L 431.50 540.20 L 434.60 532.00 L 438.20 524.10 L 442.10 516.30 L 443.90 513.60 L 446.10 511.30 L 448.60 509.50 L 451.30 508.10 L 454.20 507.30 L 457.30 506.90 L 460.30 507.10 L 463.40 507.80 L 466.40 509.00 L 469.20 510.90 L 471.50 513.20 L 473.30 515.70 L 474.70 518.60 L 475.50 521.60 L 475.80 524.80 L 475.50 527.60 L 474.80 530.50 L 469.70 541.00 L 466.40 549.00 L 463.50 557.20 L 461.10 565.60 L 459.20 574.20 L 457.90 582.80 L 457.10 591.60 L 456.80 600.40 L 457.00 608.40 L 457.70 616.10 L 458.70 623.70 L 460.10 631.10 L 461.90 638.40 L 464.70 647.40 L 468.10 656.10 L 472.00 664.50 L 476.40 672.60 L 481.30 680.40 L 486.70 687.80 L 492.50 694.90 L 498.80 701.60 L 505.50 707.80 L 512.50 713.60 L 519.90 719.00 L 527.70 723.90 L 535.80 728.40 L 544.20 732.20 L 552.90 735.60 L 561.90 738.40 L 569.20 740.20 L 576.60 741.60 L 584.20 742.70 L 592.00 743.30 L 599.90 743.50 L 609.10 743.20 L 618.10 742.40 L 626.90 740.90 L 635.70 738.90 L 635.70 461.90 L 627.10 460.00 L 618.50 458.50 L 609.70 457.70 L 600.80 457.30 L 591.10 457.70 L 581.70 458.60 L 572.50 460.10 L 563.50 462.10 L 554.80 464.70 L 546.20 467.80 L 537.80 471.50 L 529.70 475.80 L 521.80 480.60 L 511.30 487.80 L 508.50 489.00 L 505.40 489.60 L 502.40 489.70 L 499.40 489.30 L 496.50 488.40 L 493.70 486.90 L 491.30 485.10 L 489.10 482.60 L 487.50 480.10 L 486.30 477.40 L 485.60 474.60 L 485.40 471.80 L 486.20 466.50 L 487.20 464.00 L 488.60 461.60 L 490.30 459.50 L 492.50 457.60 L 499.70 452.40 L 507.10 447.70 L 514.70 443.30 L 522.60 439.30 L 530.60 435.80 L 538.90 432.60 L 547.20 429.80 L 555.70 427.50 L 564.40 425.50 L 573.00 424.00 L 581.80 422.90 L 590.60 422.10 L 599.40 421.90 L 608.20 422.00 L 616.90 422.60 L 625.60 423.60 L 634.30 425.00 L 642.80 426.90 L 651.30 429.20 L 660.20 432.10 L 668.70 435.40 L 676.80 439.00 L 684.70 443.00 L 692.40 447.30 L 699.80 452.10 L 706.90 457.10 L 713.80 462.50 L 720.30 468.20 L 726.60 474.20 L 732.60 480.50 L 738.20 487.10 L 743.50 493.90 L 748.50 500.90 L 753.10 508.20 L 757.40 515.80 L 761.40 523.50 L 764.90 531.50 L 768.10 539.60 L 770.80 547.80 L 773.20 556.30 L 775.20 564.90 L 776.70 573.60 L 777.80 582.40 L 778.50 591.30 L 778.80 600.40 L 778.50 609.50 L 777.80 618.50 L 776.70 627.30 L 775.20 636.00 L 773.20 644.60 L 770.80 653.10 L 768.00 661.40 L 764.80 669.50 L 761.30 677.40 L 757.30 685.20 L 753.00 692.80 L 748.30 700.10 L 743.40 707.20 L 738.00 714.00 L 732.30 720.60 L 726.30 726.90 L 720.00 732.90 L 713.40 738.60 L 706.50 743.90 L 699.30 749.00 L 691.90 753.70 L 684.20 758.10 L 676.30 762.10 L 668.10 765.70 L 658.70 769.20 L 649.50 772.20 L 640.20 774.70 L 630.60 776.60 L 620.90 778.00 L 611.20 778.90 L 599.90 779.30 Z M 671.40 476.60 L 671.40 724.30 L 679.30 719.40 L 686.70 714.10 L 693.70 708.40 L 700.40 702.20 L 706.60 695.60 L 712.40 688.70 L 717.70 681.50 L 722.60 673.90 L 727.00 666.00 L 730.90 657.80 L 734.30 649.40 L 737.20 640.70 L 739.50 631.90 L 741.20 622.90 L 742.30 613.70 L 743.00 600.40 L 742.60 590.70 L 741.70 581.20 L 740.10 571.90 L 737.90 562.80 L 735.10 553.80 L 731.80 545.10 L 728.00 536.70 L 723.60 528.50 L 718.60 520.70 L 713.20 513.20 L 707.40 506.00 L 701.00 499.30 L 694.20 492.90 L 687.10 487.00 L 679.50 481.60 L 671.40 476.60 Z" fill="#22104f" fill-rule="nonzero" group-id="8" node-id="91" stroke="none" target-height="609.6" target-width="609.6" target-x="349.5" target-y="350"></path></g><g node-id="111"><path d="M 599.90 779.30 L 590.00 779.00 L 580.30 778.20 L 570.80 776.90 L 561.50 775.10 L 552.40 772.90 L 543.40 770.10 L 534.60 766.90 L 526.00 763.30 L 517.80 759.30 L 509.70 754.80 L 501.80 749.90 L 494.30 744.70 L 487.10 739.10 L 480.10 733.20 L 473.50 726.80 L 467.20 720.20 L 461.20 713.20 L 455.60 706.00 L 450.40 698.50 L 445.50 690.60 L 441.00 682.60 L 437.00 674.30 L 433.40 665.70 L 430.20 657.00 L 427.40 647.90 L 425.20 638.80 L 423.40 629.50 L 422.10 620.00 L 421.30 610.30 L 421.00 600.40 L 421.30 591.60 L 421.90 582.80 L 423.00 574.10 L 424.50 565.50 L 426.40 556.90 L 428.80 548.40 L 431.50 540.20 L 434.60 532.00 L 438.20 524.10 L 442.10 516.30 L 443.90 513.60 L 446.10 511.30 L 448.60 509.50 L 451.30 508.10 L 454.20 507.30 L 457.30 506.90 L 460.30 507.10 L 463.40 507.80 L 466.40 509.00 L 469.10 510.90 L 471.30 513.00 L 473.20 515.50 L 474.50 518.20 L 475.40 521.10 L 475.80 524.20 L 475.60 527.20 L 474.90 530.30 L 469.70 541.10 L 466.40 549.00 L 463.50 557.20 L 461.10 565.70 L 459.20 574.20 L 457.90 582.80 L 457.10 591.60 L 456.80 600.40 L 457.00 608.40 L 457.70 616.10 L 458.70 623.70 L 460.10 631.10 L 461.90 638.40 L 464.70 647.40 L 468.10 656.10 L 472.00 664.50 L 476.40 672.60 L 481.30 680.40 L 486.70 687.80 L 492.50 694.90 L 498.80 701.60 L 505.50 707.80 L 512.50 713.70 L 519.90 719.00 L 527.70 724.00 L 535.80 728.40 L 544.20 732.20 L 552.90 735.60 L 561.90 738.40 L 569.20 740.20 L 576.60 741.60 L 584.20 742.70 L 592.00 743.30 L 599.90 743.50 L 608.10 743.30 L 616.20 742.60 L 624.20 741.50 L 632.10 739.80 L 639.80 737.80 L 647.50 735.30 L 656.00 732.00 L 664.10 728.20 L 671.90 724.00 L 679.40 719.40 L 686.50 714.20 L 693.30 708.70 L 699.70 702.90 L 705.80 696.60 L 711.40 690.00 L 716.70 683.00 L 721.50 675.80 L 725.80 668.30 L 729.70 660.50 L 733.10 652.50 L 736.10 644.30 L 738.50 635.80 L 740.40 627.20 L 741.80 618.50 L 742.70 609.50 L 743.00 600.40 L 742.70 591.30 L 741.80 582.40 L 740.40 573.70 L 738.50 565.10 L 736.10 556.60 L 733.10 548.40 L 729.70 540.40 L 725.80 532.60 L 721.50 525.10 L 716.70 517.80 L 711.50 510.90 L 705.80 504.30 L 699.80 498.00 L 693.40 492.20 L 686.60 486.70 L 679.40 481.50 L 672.00 476.90 L 664.20 472.70 L 656.10 468.90 L 647.60 465.70 L 639.90 463.10 L 632.10 461.10 L 624.20 459.40 L 616.20 458.30 L 608.10 457.60 L 599.90 457.40 L 592.00 457.60 L 584.30 458.20 L 576.70 459.20 L 569.20 460.60 L 561.80 462.50 L 554.50 464.70 L 547.40 467.30 L 540.40 470.30 L 533.60 473.70 L 526.90 477.40 L 511.30 487.80 L 508.50 489.00 L 505.40 489.60 L 502.40 489.70 L 499.40 489.30 L 496.50 488.40 L 493.70 487.00 L 491.30 485.10 L 489.10 482.70 L 487.30 479.90 L 486.20 477.00 L 485.60 474.00 L 485.40 470.90 L 485.90 467.90 L 486.80 465.00 L 488.20 462.30 L 490.10 459.80 L 492.50 457.60 L 499.70 452.50 L 507.10 447.70 L 514.70 443.30 L 522.60 439.40 L 530.70 435.80 L 538.90 432.60 L 547.20 429.90 L 555.80 427.50 L 564.40 425.50 L 573.10 424.00 L 581.80 422.90 L 590.60 422.20 L 599.40 421.90 L 608.20 422.00 L 617.00 422.60 L 625.70 423.60 L 634.40 425.00 L 642.90 426.90 L 651.30 429.20 L 659.60 432.00 L 668.10 435.20 L 676.30 438.80 L 684.30 442.80 L 691.90 447.10 L 699.40 451.80 L 706.60 456.90 L 713.40 462.30 L 720.00 468.00 L 726.30 473.90 L 732.30 480.20 L 738.00 486.80 L 743.30 493.70 L 748.30 500.70 L 753.00 508.00 L 757.30 515.60 L 761.30 523.40 L 764.80 531.30 L 768.00 539.40 L 770.80 547.70 L 773.20 556.20 L 775.20 564.80 L 776.70 573.50 L 777.80 582.30 L 778.50 591.30 L 778.80 600.40 L 778.50 609.60 L 777.80 618.50 L 776.70 627.40 L 775.20 636.10 L 773.20 644.60 L 770.80 653.10 L 768.00 661.40 L 764.80 669.60 L 761.30 677.50 L 757.30 685.30 L 753.00 692.80 L 748.30 700.10 L 743.30 707.20 L 738.00 714.00 L 732.30 720.60 L 726.30 726.90 L 720.00 732.90 L 713.40 738.60 L 706.50 744.00 L 699.30 749.10 L 691.80 753.80 L 684.20 758.10 L 676.20 762.10 L 668.00 765.70 L 659.50 769.00 L 649.90 772.10 L 640.20 774.70 L 630.30 776.70 L 620.30 778.10 L 610.20 779.00 L 599.90 779.30 Z" fill="#22104f" fill-rule="nonzero" group-id="9" node-id="96" stroke="none" target-height="357.4" target-width="357.8" target-x="421" target-y="421.9"></path></g><path d="M 599.90 779.30 L 590.00 779.00 L 580.30 778.20 L 570.80 776.90 L 561.50 775.10 L 552.40 772.90 L 543.40 770.10 L 534.60 766.90 L 526.00 763.30 L 517.80 759.30 L 509.70 754.80 L 501.80 749.90 L 494.30 744.70 L 487.10 739.10 L 480.10 733.20 L 473.50 726.80 L 467.20 720.20 L 461.20 713.20 L 455.60 706.00 L 450.40 698.50 L 445.50 690.60 L 441.00 682.60 L 437.00 674.30 L 433.40 665.70 L 430.20 657.00 L 427.40 647.90 L 425.20 638.80 L 423.40 629.50 L 422.10 620.00 L 421.30 610.30 L 421.00 600.40 L 421.30 591.60 L 421.90 582.80 L 423.00 574.10 L 424.50 565.50 L 426.40 556.90 L 428.80 548.40 L 431.50 540.20 L 434.60 532.00 L 438.20 524.10 L 442.10 516.30 L 443.90 513.60 L 446.10 511.30 L 448.60 509.50 L 451.30 508.10 L 454.20 507.30 L 457.30 506.90 L 460.30 507.10 L 463.40 507.80 L 466.40 509.00 L 469.10 510.90 L 471.30 513.00 L 473.20 515.50 L 474.50 518.20 L 475.40 521.10 L 475.80 524.20 L 475.60 527.20 L 474.90 530.30 L 469.70 541.10 L 466.40 549.00 L 463.50 557.20 L 461.10 565.70 L 459.20 574.20 L 457.90 582.80 L 457.10 591.60 L 456.80 600.40 L 457.00 608.40 L 457.70 616.10 L 458.70 623.70 L 460.10 631.10 L 461.90 638.40 L 464.70 647.40 L 468.10 656.10 L 472.00 664.50 L 476.40 672.60 L 481.30 680.40 L 486.70 687.80 L 492.50 694.90 L 498.80 701.60 L 505.50 707.80 L 512.50 713.70 L 519.90 719.00 L 527.70 724.00 L 535.80 728.40 L 544.20 732.20 L 552.90 735.60 L 561.90 738.40 L 569.20 740.20 L 576.60 741.60 L 584.20 742.70 L 592.00 743.30 L 599.90 743.50 L 608.10 743.30 L 616.20 742.60 L 624.20 741.50 L 632.10 739.80 L 639.80 737.80 L 647.50 735.30 L 656.00 732.00 L 664.10 728.20 L 671.90 724.00 L 679.40 719.40 L 686.50 714.20 L 693.30 708.70 L 699.70 702.90 L 705.80 696.60 L 711.40 690.00 L 716.70 683.00 L 721.50 675.80 L 725.80 668.30 L 729.70 660.50 L 733.10 652.50 L 736.10 644.30 L 738.50 635.80 L 740.40 627.20 L 741.80 618.50 L 742.70 609.50 L 743.00 600.40 L 742.70 591.30 L 741.80 582.40 L 740.40 573.70 L 738.50 565.10 L 736.10 556.60 L 733.10 548.40 L 729.70 540.40 L 725.80 532.60 L 721.50 525.10 L 716.70 517.80 L 711.50 510.90 L 705.80 504.30 L 699.80 498.00 L 693.40 492.20 L 686.60 486.70 L 679.40 481.50 L 672.00 476.90 L 664.20 472.70 L 656.10 468.90 L 647.60 465.70 L 639.90 463.10 L 632.10 461.10 L 624.20 459.40 L 616.20 458.30 L 608.10 457.60 L 599.90 457.40 L 592.00 457.60 L 584.30 458.20 L 576.70 459.20 L 569.20 460.60 L 561.80 462.50 L 554.50 464.70 L 547.40 467.30 L 540.40 470.30 L 533.60 473.70 L 526.90 477.40 L 511.30 487.80 L 508.50 489.00 L 505.40 489.60 L 502.40 489.70 L 499.40 489.30 L 496.50 488.40 L 493.70 487.00 L 491.30 485.10 L 489.10 482.70 L 487.30 479.90 L 486.20 477.00 L 485.60 474.00 L 485.40 470.90 L 485.90 467.90 L 486.80 465.00 L 488.20 462.30 L 490.10 459.80 L 492.50 457.60 L 499.70 452.50 L 507.10 447.70 L 514.70 443.30 L 522.60 439.40 L 530.70 435.80 L 538.90 432.60 L 547.20 429.90 L 555.80 427.50 L 564.40 425.50 L 573.10 424.00 L 581.80 422.90 L 590.60 422.20 L 599.40 421.90 L 608.20 422.00 L 617.00 422.60 L 625.70 423.60 L 634.40 425.00 L 642.90 426.90 L 651.30 429.20 L 659.60 432.00 L 668.10 435.20 L 676.30 438.80 L 684.30 442.80 L 691.90 447.10 L 699.40 451.80 L 706.60 456.90 L 713.40 462.30 L 720.00 468.00 L 726.30 473.90 L 732.30 480.20 L 738.00 486.80 L 743.30 493.70 L 748.30 500.70 L 753.00 508.00 L 757.30 515.60 L 761.30 523.40 L 764.80 531.30 L 768.00 539.40 L 770.80 547.70 L 773.20 556.20 L 775.20 564.80 L 776.70 573.50 L 777.80 582.30 L 778.50 591.30 L 778.80 600.40 L 778.50 609.60 L 777.80 618.50 L 776.70 627.40 L 775.20 636.10 L 773.20 644.60 L 770.80 653.10 L 768.00 661.40 L 764.80 669.60 L 761.30 677.50 L 757.30 685.30 L 753.00 692.80 L 748.30 700.10 L 743.30 707.20 L 738.00 714.00 L 732.30 720.60 L 726.30 726.90 L 720.00 732.90 L 713.40 738.60 L 706.50 744.00 L 699.30 749.10 L 691.80 753.80 L 684.20 758.10 L 676.20 762.10 L 668.00 765.70 L 659.50 769.00 L 649.90 772.10 L 640.20 774.70 L 630.30 776.70 L 620.30 778.10 L 610.20 779.00 L 599.90 779.30 Z" fill="#22104f" fill-rule="nonzero" group-id="10" node-id="101" stroke="none" target-height="357.4" target-width="357.8" target-x="421" target-y="421.9"></path></svg>