<?xml version="1.0" standalone="no"?><!DOCTYPE svg PUBLIC "-//W3C//DTD SVG 1.1//EN" "http://www.w3.org/Graphics/SVG/1.1/DTD/svg11.dtd"><svg height="60" node-id="1" sillyvg="true" template-height="60" template-width="60" version="1.1" viewBox="0 0 60 60" width="60" xmlns="http://www.w3.org/2000/svg" xmlns:xlink="http://www.w3.org/1999/xlink"><defs node-id="29"></defs><path d="M 25.90 16.70 L 26.10 15.30 L 25.00 14.90 L 22.30 15.00 L 21.10 15.50 L 19.10 17.50 L 18.60 18.70 L 18.40 20.20 L 18.60 21.70 L 20.00 24.00 L 27.70 24.00 L 29.10 21.60 L 27.80 20.70 L 26.80 19.60 L 26.10 18.20 L 25.90 16.70 Z" fill="#ffbe1b" fill-rule="nonzero" node-id="33" stroke="none" target-height="9.1" target-width="10.700001" target-x="18.4" target-y="14.9"></path><path d="M 25.90 16.70 L 23.80 16.10 L 22.20 16.40 L 21.00 17.30 L 20.10 18.50 L 19.80 20.10 L 20.50 22.40 L 22.40 23.90 L 25.20 23.90 L 26.20 23.40 L 27.50 21.80 L 27.80 20.70 L 26.40 19.00 L 25.90 16.70 Z" fill="#ffe37b" fill-rule="nonzero" node-id="35" stroke="none" target-height="7.799999" target-width="8" target-x="19.8" target-y="16.1"></path><path d="M 25.60 21.00 L 25.40 20.40 L 24.80 20.10 L 25.30 19.20 L 25.00 18.50 L 24.40 18.20 L 24.40 17.70 L 23.70 17.70 L 23.70 18.20 L 23.20 18.20 L 23.20 17.70 L 22.50 17.70 L 22.50 18.20 L 21.70 18.20 L 21.70 18.90 L 22.30 18.90 L 22.30 21.30 L 21.70 21.30 L 21.70 22.00 L 22.50 22.00 L 22.50 22.50 L 23.20 22.50 L 23.20 22.00 L 23.70 22.00 L 23.70 22.50 L 24.40 22.50 L 24.40 22.00 L 25.20 21.70 L 25.60 21.00 Z M 24.30 19.00 L 24.30 19.60 L 23.40 19.70 L 23.40 18.90 L 24.30 19.00 Z M 24.50 21.30 L 23.30 21.40 L 23.30 20.50 L 24.40 20.60 L 24.50 21.30 Z" fill="#ffffff" fill-rule="nonzero" node-id="37" stroke="none" target-height="4.799999" target-width="3.8999996" target-x="21.7" target-y="17.7"></path><path d="M 14.80 26.10 L 13.10 27.40 L 12.60 28.60 L 11.80 27.00 L 10.20 26.20 L 11.80 25.40 L 12.60 23.80 L 13.40 25.30 L 14.80 26.10 Z" fill="#ffbe1b" fill-rule="nonzero" node-id="39" stroke="none" target-height="4.800001" target-width="4.6000004" target-x="10.2" target-y="23.8"></path><path d="M 15.80 21.00 L 14.80 21.70 L 14.20 22.80 L 13.60 21.70 L 12.50 21.10 L 13.60 20.50 L 14.20 19.40 L 14.80 20.40 L 15.80 21.00 Z" fill="#ffbe1b" fill-rule="nonzero" node-id="41" stroke="none" target-height="3.3999996" target-width="3.3000002" target-x="12.5" target-y="19.4"></path><path d="M 47.90 31.90 L 46.80 32.60 L 46.20 33.70 L 45.30 32.30 L 44.40 31.90 L 45.60 31.30 L 46.20 30.10 L 46.50 31.00 L 47.90 31.90 Z" fill="#5d8ef9" fill-rule="nonzero" node-id="43" stroke="none" target-height="3.6000004" target-width="3.5" target-x="44.4" target-y="30.1"></path><path d="M 42.00 15.50 L 40.80 16.20 L 40.10 17.60 L 39.70 16.60 L 39.10 16.00 L 38.00 15.50 L 39.00 15.10 L 39.60 14.50 L 40.10 13.40 L 40.50 14.50 L 42.00 15.50 Z" fill="#330d84" fill-rule="nonzero" node-id="45" stroke="none" target-height="4.200001" target-width="4" target-x="38" target-y="13.4"></path><path d="M 17.60 28.10 L 20.00 28.50 L 35.40 28.50 L 34.20 26.00 L 34.20 24.00 L 19.00 24.00 L 17.90 24.20 L 16.60 25.60 L 16.30 26.60 L 17.60 28.10 Z" fill="#6857e5" fill-rule="nonzero" node-id="47" stroke="none" target-height="4.5" target-width="19.100002" target-x="16.3" target-y="24"></path><path d="M 39.50 19.60 L 36.80 20.30 L 34.80 22.30 L 34.10 25.00 L 34.40 26.90 L 35.40 28.50 L 40.30 28.50 L 41.50 28.80 L 42.40 29.50 L 44.20 27.60 L 44.70 26.40 L 44.70 23.50 L 44.20 22.30 L 42.20 20.30 L 39.50 19.60 Z" fill="#5d8ef9" fill-rule="nonzero" node-id="49" stroke="none" target-height="9.9" target-width="10.600002" target-x="34.1" target-y="19.6"></path><path d="M 37.50 28.40 L 41.30 28.60 L 43.00 27.10 L 43.60 24.90 L 43.30 23.30 L 42.40 22.00 L 41.20 21.10 L 39.60 20.80 L 38.00 21.10 L 36.80 22.00 L 35.90 23.30 L 35.70 26.00 L 36.10 27.00 L 37.50 28.40 Z" fill="#8ac9f9" fill-rule="nonzero" node-id="51" stroke="none" target-height="7.800001" target-width="7.8999977" target-x="35.7" target-y="20.8"></path><path d="M 39.50 26.00 L 37.90 24.80 L 39.50 22.20 L 41.20 24.80 Z" fill="#ffffff" fill-rule="nonzero" node-id="53" stroke="none" target-height="3.7999992" target-width="3.2999992" target-x="37.9" target-y="22.2"></path><path d="M 39.50 27.70 L 37.90 25.10 L 39.50 26.40 L 41.20 25.10 Z" fill="#ffffff" fill-rule="nonzero" node-id="55" stroke="none" target-height="2.6000004" target-width="3.2999992" target-x="37.9" target-y="25.1"></path><path d="M 40.30 46.80 L 19.00 46.80 L 17.90 46.60 L 17.10 46.00 L 16.50 45.20 L 16.30 44.10 L 16.30 26.50 L 16.80 27.50 L 18.70 28.40 L 40.30 28.40 L 41.40 28.60 L 42.20 29.20 L 42.80 30.00 L 43.00 31.10 L 43.00 44.10 L 42.80 45.20 L 42.20 46.00 L 41.40 46.60 L 40.30 46.80 Z" fill="#8c7bfd" fill-rule="nonzero" node-id="57" stroke="none" target-height="20.3" target-width="26.7" target-x="16.3" target-y="26.5"></path><path d="M 35.80 40.20 L 34.90 39.90 L 34.60 39.00 L 34.70 35.60 L 35.80 34.90 L 43.00 34.90 L 43.00 40.20 L 35.80 40.20 Z" fill="#8ac9f9" fill-rule="nonzero" node-id="59" stroke="none" target-height="5.299999" target-width="8.400002" target-x="34.6" target-y="34.9"></path><path d="M 38.10 37.60 L 37.80 38.50 L 36.90 38.80 L 36.00 38.50 L 35.70 37.60 L 36.00 36.70 L 36.90 36.40 L 37.80 36.70 L 38.10 37.60 Z" fill="#ffe37b" fill-rule="nonzero" node-id="61" stroke="none" target-height="2.3999977" target-width="2.3999977" target-x="35.7" target-y="36.4"></path><path d="M 36.70 16.70 L 36.50 18.20 L 35.10 20.50 L 32.80 21.90 L 31.30 22.10 L 28.60 21.40 L 26.60 19.40 L 26.10 18.20 L 25.90 16.70 L 26.60 14.00 L 28.60 12.00 L 31.30 11.30 L 32.80 11.50 L 35.10 12.90 L 36.50 15.20 L 36.70 16.70 Z" fill="#330d84" fill-rule="nonzero" node-id="63" stroke="none" target-height="10.8" target-width="10.800001" target-x="25.9" target-y="11.3"></path><path d="M 35.30 16.70 L 35.00 18.30 L 34.10 19.60 L 32.90 20.50 L 31.30 20.80 L 29.70 20.50 L 28.40 19.60 L 27.50 18.30 L 27.20 16.70 L 27.50 15.10 L 28.40 13.80 L 29.70 13.00 L 31.30 12.70 L 32.90 13.00 L 34.10 13.80 L 35.00 15.10 L 35.30 16.70 Z" fill="#5932ae" fill-rule="nonzero" node-id="65" stroke="none" target-height="8.099999" target-width="8.099998" target-x="27.2" target-y="12.7"></path><path d="M 33.50 17.70 L 33.50 14.90 L 31.30 17.20 L 29.00 14.90 L 29.00 17.70 L 28.40 17.70 L 28.40 18.50 L 29.80 18.50 L 29.80 16.70 L 31.30 18.20 L 32.80 16.70 L 32.80 18.50 L 34.20 18.50 L 34.20 17.70 Z" fill="#ffffff" fill-rule="nonzero" node-id="67" stroke="none" target-height="3.6000004" target-width="5.800001" target-x="28.4" target-y="14.9"></path><path d="M 29.20 36.40 L 28.30 36.70 L 27.80 37.60 L 25.00 37.60 L 23.00 35.30 L 16.40 35.30 L 16.40 35.90 L 22.70 35.90 L 24.70 38.20 L 27.70 38.20 L 28.60 39.30 L 29.70 39.30 L 30.20 39.00 L 30.60 37.90 L 30.20 36.90 L 29.20 36.40 Z M 29.20 38.80 L 28.40 38.20 L 29.20 38.50 L 29.80 37.90 L 29.20 37.30 L 28.40 37.60 L 28.70 37.20 L 29.20 37.00 L 29.80 37.30 L 30.10 37.90 L 29.80 38.50 L 29.20 38.80 Z" fill="#ffffff" fill-rule="nonzero" node-id="69" stroke="none" target-height="4" target-width="14.200001" target-x="16.4" target-y="35.3"></path><path d="M 39.80 42.50 L 38.80 41.90 L 26.60 41.90 L 25.00 44.20 L 22.30 44.20 L 21.80 43.30 L 20.90 43.00 L 19.80 43.40 L 19.40 44.50 L 19.50 45.10 L 20.30 45.90 L 20.90 46.00 L 21.80 45.70 L 22.30 44.80 L 25.30 44.80 L 26.90 42.50 L 38.50 42.50 L 39.50 43.10 L 43.00 43.10 L 43.00 42.50 L 39.80 42.50 Z M 20.90 45.40 L 20.30 45.10 L 20.00 44.50 L 20.30 43.90 L 20.90 43.60 L 21.70 44.20 L 20.90 43.90 L 20.50 44.10 L 20.50 44.90 L 20.90 45.10 L 21.70 44.80 L 20.90 45.40 Z" fill="#ffffff" fill-rule="nonzero" node-id="71" stroke="none" target-height="4.0999985" target-width="23.6" target-x="19.4" target-y="41.9"></path><path d="M 23.60 39.20 L 23.10 39.50 L 20.10 39.50 L 19.50 40.70 L 16.30 40.70 L 16.30 41.30 L 19.90 41.30 L 20.50 40.10 L 23.10 40.10 L 23.60 40.40 L 24.20 39.80 L 23.60 39.20 Z" fill="#ffffff" fill-rule="nonzero" node-id="73" stroke="none" target-height="2.0999985" target-width="7.9000015" target-x="16.3" target-y="39.2"></path><path d="M 31.90 30.30 L 31.40 30.60 L 29.20 30.60 L 28.00 29.90 L 19.40 29.90 L 18.80 31.10 L 16.40 31.10 L 16.40 31.70 L 19.10 31.70 L 19.70 30.50 L 27.80 30.50 L 29.00 31.10 L 31.30 31.10 L 31.80 31.40 L 32.40 30.80 L 31.90 30.30 Z" fill="#ffffff" fill-rule="nonzero" node-id="75" stroke="none" target-height="1.8000011" target-width="16.000002" target-x="16.4" target-y="29.9"></path><path d="M 34.50 31.90 L 33.30 34.20 L 28.30 34.20 L 26.30 32.60 L 22.40 32.60 L 21.90 32.30 L 21.30 32.90 L 21.90 33.50 L 22.40 33.20 L 26.10 33.20 L 28.10 34.80 L 33.70 34.80 L 34.90 32.50 L 43.00 32.50 L 43.00 31.90 L 34.50 31.90 Z" fill="#ffffff" fill-rule="nonzero" node-id="77" stroke="none" target-height="2.8999996" target-width="21.7" target-x="21.3" target-y="31.9"></path></svg>