<?xml version="1.0" standalone="no"?><!DOCTYPE svg PUBLIC "-//W3C//DTD SVG 1.1//EN" "http://www.w3.org/Graphics/SVG/1.1/DTD/svg11.dtd"><svg height="253" node-id="1" sillyvg="true" template-height="253" template-width="257" version="1.1" viewBox="0 0 257 253" width="257" xmlns="http://www.w3.org/2000/svg" xmlns:xlink="http://www.w3.org/1999/xlink"><defs node-id="282"></defs><g node-id="644"><g node-id="648"><path d="M 247.80 121.50 L 247.60 115.50 L 246.90 109.70 L 245.70 104.10 L 244.10 98.70 L 242.10 93.30 L 239.70 88.30 L 237.00 83.40 L 233.90 78.80 L 230.40 74.50 L 226.60 70.40 L 222.60 66.70 L 218.20 63.20 L 213.60 60.10 L 208.70 57.30 L 203.60 55.00 L 198.30 52.90 L 192.90 51.40 L 187.20 50.20 L 181.40 49.50 L 173.60 49.30 L 170.20 44.10 L 166.40 39.30 L 162.20 34.90 L 157.70 30.70 L 152.80 27.00 L 147.70 23.70 L 142.20 20.80 L 136.40 18.40 L 130.50 16.50 L 124.30 15.10 L 117.90 14.30 L 111.30 13.90 L 105.30 14.20 L 99.50 14.90 L 93.90 16.00 L 88.40 17.60 L 83.10 19.60 L 78.00 22.00 L 73.10 24.80 L 68.50 27.90 L 64.10 31.30 L 60.10 35.10 L 56.30 39.20 L 52.80 43.50 L 49.70 48.10 L 47.00 53.00 L 44.60 58.00 L 42.60 63.40 L 41.00 68.80 L 39.80 74.40 L 39.10 80.20 L 38.60 91.30 L 37.70 94.70 L 36.20 98.00 L 32.10 104.40 L 29.40 107.60 L 16.10 122.00 L 9.20 130.60 L 5.00 138.00 L 3.50 142.00 L 2.60 146.10 L 2.30 150.50 L 2.50 156.50 L 3.20 162.30 L 4.40 167.90 L 6.00 173.40 L 8.00 178.70 L 10.40 183.80 L 13.10 188.60 L 16.30 193.20 L 19.70 197.60 L 23.50 201.60 L 27.60 205.40 L 31.90 208.80 L 36.60 212.00 L 41.40 214.70 L 46.50 217.10 L 51.80 219.10 L 57.30 220.70 L 62.90 221.80 L 68.70 222.50 L 74.70 222.80 L 81.40 222.50 L 86.30 222.70 L 90.50 223.40 L 94.20 224.40 L 97.80 225.80 L 104.00 229.30 L 108.10 232.40 L 119.40 241.90 L 123.20 244.60 L 127.40 246.80 L 130.40 247.80 L 133.60 248.50 L 137.30 248.70 L 148.30 247.90 L 158.60 245.60 L 163.60 243.90 L 172.90 239.40 L 177.30 236.70 L 185.50 230.50 L 192.60 223.10 L 195.80 219.10 L 201.30 210.40 L 203.60 205.70 L 207.10 195.90 L 209.20 185.40 L 213.20 177.60 L 219.50 168.80 L 236.40 149.80 L 242.30 141.50 L 245.70 134.10 L 246.80 130.30 L 247.60 126.10 L 247.80 121.50 Z" fill="#bddbff" fill-opacity="0.39" fill-rule="nonzero" group-id="1,5" node-id="286" stroke="none" target-height="234.8" target-width="245.5" target-x="2.3" target-y="13.9"></path></g></g><g node-id="645"><g node-id="649"><g node-id="674"><g node-id="704"><path d="M 17.50 33.40 L 157.90 59.70 L 143.70 135.70 L 3.30 109.30 Z" fill="#d3e8df" fill-rule="nonzero" group-id="2,6,31,61" node-id="297" stroke="none" target-height="102.299995" target-width="154.59999" target-x="3.3" target-y="33.4"></path></g><path d="M 143.70 137.20 L 2.50 110.60 L 1.80 109.70 L 1.80 109.10 L 16.00 33.10 L 16.30 32.60 L 17.20 32.00 L 158.70 58.50 L 159.40 59.40 L 159.40 60.00 L 145.10 135.90 L 144.60 136.80 L 143.70 137.20 Z M 5.00 108.10 L 142.50 133.90 L 156.20 60.90 L 18.70 35.20 L 5.00 108.10 Z" fill="#ccccde" fill-rule="nonzero" group-id="2,6,31" node-id="300" stroke="none" target-height="105.2" target-width="157.59999" target-x="1.8" target-y="32"></path></g><g node-id="675"><path d="M 144.10 75.10 L 142.70 74.60 L 140.60 72.90 L 139.70 70.30 L 140.00 67.80 L 32.20 47.60 L 31.60 50.00 L 29.80 52.10 L 27.20 53.00 L 24.80 52.60 L 17.00 94.10 L 19.40 94.60 L 21.50 96.40 L 22.40 99.00 L 22.10 101.40 L 129.90 121.70 L 130.50 119.30 L 132.30 117.20 L 134.90 116.30 L 136.50 116.40 L 144.10 75.10 Z" fill="#e3ffe8" fill-rule="nonzero" group-id="2,6,32" node-id="305" stroke="none" target-height="74.1" target-width="127.100006" target-x="17" target-y="47.6"></path><path d="M 129.90 123.20 L 21.20 102.70 L 20.60 101.50 L 20.80 98.60 L 20.30 97.30 L 19.20 96.20 L 16.40 95.40 L 15.90 95.00 L 15.50 93.80 L 23.30 52.40 L 24.00 51.30 L 24.70 51.10 L 27.60 51.40 L 29.00 50.80 L 30.00 49.80 L 30.80 46.90 L 31.80 46.10 L 140.90 66.60 L 141.50 67.70 L 141.20 70.60 L 141.80 72.00 L 142.90 73.10 L 145.00 73.90 L 145.40 74.30 L 145.70 75.40 L 137.90 116.60 L 137.30 117.60 L 136.70 117.80 L 134.00 118.00 L 132.90 118.60 L 132.00 119.60 L 131.30 122.30 L 130.90 122.80 L 129.90 123.20 Z M 23.90 100.30 L 128.70 119.90 L 129.20 118.50 L 131.10 116.20 L 133.70 114.90 L 135.20 114.70 L 142.50 76.20 L 140.70 75.20 L 139.40 73.70 L 138.60 72.20 L 138.20 69.00 L 33.40 49.30 L 32.90 50.80 L 31.00 53.10 L 28.30 54.30 L 25.90 54.50 L 18.80 92.80 L 20.30 93.40 L 22.70 95.60 L 23.90 98.50 L 23.90 100.30 Z" fill="#ccccde" fill-rule="nonzero" group-id="2,6,32" node-id="307" stroke="none" target-height="77.1" target-width="130.2" target-x="15.5" target-y="46.1"></path></g><g node-id="676"><g node-id="705"><path d="M 82.30 63.70 L 85.10 64.60 L 87.50 66.00 L 89.70 68.00 L 91.50 70.40 L 93.00 73.20 L 94.00 76.40 L 94.60 79.70 L 94.70 83.30 L 94.20 87.10 L 93.30 90.80 L 91.90 94.10 L 90.10 97.00 L 88.00 99.60 L 85.70 101.70 L 83.10 103.20 L 80.30 104.30 L 77.50 104.70 L 74.60 104.50 L 71.80 103.70 L 69.40 102.30 L 67.20 100.30 L 65.40 97.90 L 63.90 95.10 L 62.90 91.90 L 62.30 88.50 L 62.20 85.00 L 62.70 81.20 L 63.60 77.50 L 65.00 74.20 L 66.70 71.30 L 68.90 68.70 L 71.20 66.60 L 73.80 65.00 L 76.60 64.00 L 79.40 63.50 L 82.30 63.70 Z" fill="#d3e8df" fill-rule="nonzero" group-id="2,6,33,62" node-id="314" stroke="none" target-height="41.199997" target-width="32.499996" target-x="62.2" target-y="63.5"></path></g><path d="M 76.90 106.30 L 74.30 106.00 L 69.90 104.40 L 68.00 103.10 L 64.60 99.50 L 63.20 97.20 L 61.40 92.20 L 60.90 89.40 L 60.80 83.80 L 62.10 77.30 L 63.40 74.10 L 65.00 71.10 L 67.00 68.50 L 69.20 66.30 L 71.60 64.50 L 74.30 63.10 L 77.00 62.30 L 79.90 62.00 L 82.50 62.30 L 87.00 63.90 L 90.70 66.90 L 92.70 69.50 L 94.20 72.40 L 95.40 75.90 L 96.10 79.50 L 96.20 83.30 L 95.70 87.40 L 94.80 91.00 L 93.50 94.20 L 91.90 97.10 L 89.90 99.80 L 87.70 102.00 L 85.30 103.80 L 82.60 105.10 L 79.80 106.00 L 76.90 106.30 Z M 79.90 65.00 L 77.60 65.30 L 75.30 66.00 L 73.00 67.20 L 69.10 70.70 L 66.00 75.60 L 64.90 78.40 L 64.10 81.50 L 63.70 85.30 L 63.90 89.00 L 64.60 92.60 L 65.90 95.80 L 67.10 97.70 L 69.80 100.70 L 71.40 101.80 L 74.90 103.10 L 76.90 103.30 L 79.30 103.00 L 81.60 102.30 L 83.90 101.10 L 87.80 97.60 L 90.90 92.70 L 92.00 89.90 L 92.80 86.80 L 93.20 83.30 L 93.10 80.00 L 92.60 76.90 L 91.60 73.90 L 90.40 71.30 L 88.70 69.10 L 86.70 67.30 L 84.50 66.00 L 82.00 65.20 L 79.90 65.00 Z" fill="#ccccde" fill-rule="nonzero" group-id="2,6,33" node-id="317" stroke="none" target-height="44.300003" target-width="35.399998" target-x="60.8" target-y="62"></path></g><path d="M 80.00 86.80 L 82.20 84.90 L 85.40 80.80 L 85.90 79.50 L 86.00 77.30 L 85.70 75.40 L 84.90 73.80 L 83.80 72.50 L 82.40 71.50 L 80.60 71.00 L 78.80 70.80 L 77.10 71.00 L 75.20 72.10 L 74.20 73.20 L 72.80 76.40 L 72.10 80.90 L 72.30 82.70 L 73.60 85.80 L 71.40 86.40 L 69.30 87.40 L 67.40 88.80 L 65.90 90.40 L 64.80 92.30 L 64.20 94.20 L 64.10 95.90 L 65.10 98.80 L 67.30 101.20 L 68.90 102.20 L 71.60 103.40 L 74.90 104.30 L 78.30 104.70 L 81.00 104.60 L 83.10 104.10 L 84.50 103.30 L 85.60 102.30 L 86.50 100.90 L 87.00 99.20 L 87.10 97.00 L 86.60 94.60 L 85.50 92.30 L 84.00 90.00 L 82.20 88.10 L 80.00 86.80 Z" fill="#ccccde" fill-rule="nonzero" group-id="2,6" node-id="320" stroke="none" target-height="33.899994" target-width="23" target-x="64.1" target-y="70.8"></path><g node-id="677"><path d="M 25.20 42.70 L 24.20 42.70 L 22.60 43.70 L 22.30 45.60 L 23.30 47.20 L 25.20 47.50 L 26.80 46.50 L 27.10 44.60 L 26.10 43.00 L 25.20 42.70 Z M 147.70 65.60 L 146.70 65.60 L 145.10 66.70 L 144.80 68.60 L 145.80 70.20 L 147.80 70.50 L 149.30 69.50 L 149.60 67.50 L 148.60 66.00 L 147.70 65.60 Z" fill="#ccccde" fill-rule="nonzero" group-id="2,6,34" node-id="324" stroke="none" target-height="27.8" target-width="127.3" target-x="22.3" target-y="42.7"></path></g><g node-id="678"><path d="M 14.60 99.00 L 12.70 99.40 L 11.70 101.00 L 12.10 102.90 L 13.70 103.90 L 15.50 103.50 L 16.60 101.90 L 16.20 100.10 L 14.60 99.00 Z M 137.10 122.00 L 135.20 122.40 L 134.20 124.00 L 134.60 125.90 L 136.20 126.90 L 138.00 126.50 L 139.10 124.90 L 138.70 123.10 L 137.10 122.00 Z" fill="#ccccde" fill-rule="nonzero" group-id="2,6,35" node-id="329" stroke="none" target-height="27.900002" target-width="127.40001" target-x="11.7" target-y="99"></path></g><path d="M 42.00 85.40 L 39.70 85.10 L 37.70 84.20 L 35.90 82.90 L 34.60 81.10 L 33.70 79.10 L 33.40 76.80 L 33.70 74.50 L 34.60 72.40 L 35.90 70.70 L 37.70 69.40 L 39.70 68.50 L 42.00 68.20 L 44.30 68.50 L 46.40 69.40 L 48.10 70.70 L 49.40 72.40 L 50.30 74.50 L 50.60 76.80 L 50.30 79.10 L 49.40 81.10 L 48.10 82.90 L 46.40 84.20 L 44.30 85.10 L 42.00 85.40 Z M 42.00 71.20 L 40.50 71.40 L 38.10 72.80 L 36.60 75.30 L 36.40 76.80 L 36.60 78.30 L 38.10 80.70 L 40.50 82.20 L 42.00 82.40 L 43.50 82.20 L 46.00 80.70 L 47.40 78.30 L 47.60 76.80 L 47.40 75.30 L 46.00 72.80 L 43.50 71.40 L 42.00 71.20 Z" fill="#ccccde" fill-rule="nonzero" group-id="2,6" node-id="332" stroke="none" target-height="17.200005" target-width="17.199997" target-x="33.4" target-y="68.2"></path><g node-id="679"><path d="M 124.60 90.90 L 124.30 92.80 L 123.60 94.50 L 122.50 96.00 L 121.10 97.10 L 119.40 97.80 L 117.50 98.00 L 115.60 97.80 L 113.90 97.10 L 112.40 96.00 L 111.30 94.50 L 110.60 92.80 L 110.40 90.90 L 110.60 89.00 L 111.30 87.40 L 112.40 85.90 L 113.90 84.80 L 115.60 84.10 L 117.50 83.80 L 119.40 84.10 L 121.10 84.80 L 122.50 85.90 L 123.60 87.40 L 124.30 89.00 L 124.60 90.90 Z" fill="#d3e8df" fill-rule="nonzero" group-id="2,6,36" node-id="336" stroke="none" target-height="14.199997" target-width="14.199997" target-x="110.4" target-y="83.8"></path><path d="M 117.50 99.50 L 115.20 99.20 L 113.10 98.40 L 111.40 97.00 L 110.00 95.30 L 109.20 93.20 L 108.90 90.90 L 109.20 88.60 L 110.00 86.60 L 111.40 84.90 L 113.10 83.50 L 115.20 82.60 L 117.50 82.30 L 119.80 82.60 L 121.80 83.50 L 123.50 84.90 L 124.90 86.60 L 125.80 88.60 L 126.10 90.90 L 125.80 93.20 L 124.90 95.30 L 123.50 97.00 L 121.80 98.40 L 119.80 99.20 L 117.50 99.50 Z M 117.50 85.30 L 115.90 85.50 L 113.50 87.00 L 112.10 89.40 L 111.90 90.90 L 112.60 93.80 L 114.60 95.80 L 115.90 96.30 L 117.50 96.50 L 120.30 95.80 L 122.30 93.80 L 123.10 90.90 L 122.90 89.40 L 121.40 87.00 L 119.00 85.50 L 117.50 85.30 Z" fill="#ccccde" fill-rule="nonzero" group-id="2,6,36" node-id="338" stroke="none" target-height="17.199997" target-width="17.199997" target-x="108.9" target-y="82.3"></path></g></g><g node-id="650"><g node-id="680"><path d="M 222.90 91.70 L 222.50 95.40 L 221.60 98.70 L 220.10 101.80 L 218.10 104.60 L 215.80 107.00 L 213.00 109.00 L 209.90 110.40 L 206.50 111.40 L 202.90 111.70 L 199.20 111.40 L 195.90 110.40 L 192.80 109.00 L 190.00 107.00 L 187.60 104.60 L 185.60 101.80 L 184.20 98.70 L 183.30 95.40 L 182.90 91.70 L 183.30 88.10 L 184.20 84.70 L 185.60 81.60 L 187.60 78.80 L 190.00 76.50 L 192.80 74.50 L 195.90 73.00 L 199.20 72.10 L 202.90 71.80 L 206.50 72.10 L 209.90 73.00 L 213.00 74.50 L 215.80 76.50 L 218.10 78.80 L 220.10 81.60 L 221.60 84.70 L 222.50 88.10 L 222.90 91.70 Z" fill="#ffe2d6" fill-rule="nonzero" group-id="2,7,37" node-id="346" stroke="none" target-height="39.899994" target-width="40" target-x="182.9" target-y="71.8"></path><path d="M 202.90 113.20 L 199.90 113.00 L 194.50 111.50 L 192.10 110.30 L 189.00 108.10 L 186.50 105.60 L 184.40 102.60 L 183.10 100.10 L 181.60 94.70 L 181.40 91.70 L 181.60 88.80 L 183.10 83.40 L 184.40 80.90 L 186.50 77.90 L 189.00 75.30 L 192.10 73.20 L 197.10 71.00 L 199.90 70.50 L 202.90 70.30 L 208.60 71.00 L 213.70 73.20 L 216.70 75.30 L 219.30 77.90 L 221.40 80.90 L 222.70 83.40 L 224.10 88.80 L 224.40 91.70 L 224.10 94.70 L 222.70 100.10 L 221.40 102.60 L 219.30 105.60 L 216.70 108.10 L 213.70 110.30 L 211.20 111.50 L 205.90 113.00 L 202.90 113.20 Z M 202.90 73.30 L 199.50 73.60 L 196.40 74.40 L 193.60 75.80 L 191.00 77.60 L 188.80 79.80 L 186.90 82.40 L 185.60 85.30 L 184.70 88.40 L 184.40 91.70 L 184.70 95.10 L 185.60 98.20 L 186.90 101.00 L 188.80 103.60 L 191.00 105.80 L 193.60 107.70 L 196.40 109.00 L 199.50 109.90 L 202.90 110.20 L 206.20 109.90 L 209.30 109.00 L 212.20 107.70 L 214.80 105.80 L 217.00 103.60 L 218.80 101.00 L 220.20 98.20 L 221.00 95.10 L 221.40 91.70 L 221.00 88.40 L 220.20 85.30 L 218.80 82.40 L 217.00 79.80 L 214.80 77.60 L 212.20 75.80 L 209.30 74.40 L 206.20 73.60 L 202.90 73.30 Z" fill="#ccccde" fill-rule="nonzero" group-id="2,7,37" node-id="348" stroke="none" target-height="42.899994" target-width="43" target-x="181.4" target-y="70.3"></path></g><g node-id="681"><path d="M 217.20 91.60 L 217.00 94.20 L 216.30 96.60 L 215.30 98.80 L 213.90 100.80 L 212.20 102.40 L 210.20 103.90 L 208.00 104.90 L 205.60 105.60 L 203.00 105.80 L 200.40 105.60 L 198.00 104.90 L 195.80 103.90 L 193.80 102.40 L 192.20 100.80 L 190.70 98.80 L 189.70 96.60 L 189.00 94.20 L 188.80 91.60 L 189.00 89.00 L 189.70 86.60 L 190.70 84.40 L 192.20 82.40 L 193.80 80.70 L 195.80 79.30 L 198.00 78.30 L 200.40 77.60 L 203.00 77.40 L 205.60 77.60 L 208.00 78.30 L 210.20 79.30 L 212.20 80.70 L 213.90 82.40 L 215.30 84.40 L 216.30 86.60 L 217.00 89.00 L 217.20 91.60 Z" fill="#fff6d6" fill-rule="nonzero" group-id="2,7,38" node-id="353" stroke="none" target-height="28.400002" target-width="28.399994" target-x="188.8" target-y="77.4"></path><path d="M 203.00 107.30 L 200.20 107.00 L 197.50 106.30 L 195.10 105.20 L 192.90 103.60 L 191.00 101.70 L 189.50 99.50 L 188.30 97.10 L 187.60 94.50 L 187.30 91.60 L 187.60 88.70 L 188.30 86.10 L 189.50 83.70 L 191.00 81.50 L 192.90 79.60 L 195.10 78.00 L 197.50 76.90 L 200.20 76.20 L 203.00 75.90 L 205.90 76.20 L 208.50 76.90 L 210.90 78.00 L 213.10 79.60 L 215.00 81.50 L 216.60 83.70 L 217.70 86.10 L 218.40 88.70 L 218.70 91.60 L 218.40 94.50 L 217.70 97.10 L 216.60 99.50 L 215.00 101.70 L 213.10 103.60 L 210.90 105.20 L 208.50 106.30 L 205.90 107.00 L 203.00 107.30 Z M 203.00 78.90 L 198.60 79.70 L 194.80 81.90 L 192.00 85.20 L 191.10 87.20 L 190.30 91.60 L 191.10 96.00 L 192.00 98.00 L 194.80 101.30 L 198.60 103.50 L 203.00 104.30 L 207.50 103.50 L 209.40 102.60 L 212.70 99.80 L 214.90 96.00 L 215.70 91.60 L 214.90 87.20 L 214.00 85.20 L 211.20 81.90 L 207.50 79.70 L 203.00 78.90 Z" fill="#ccccde" fill-rule="nonzero" group-id="2,7,38" node-id="355" stroke="none" target-height="31.400002" target-width="31.399994" target-x="187.3" target-y="75.9"></path></g></g><g node-id="651"><path d="M 66.10 165.10 L 77.30 165.10 L 77.30 168.90 L 69.70 168.90 L 69.30 171.50 L 72.40 170.70 L 75.40 171.40 L 77.40 173.40 L 77.90 174.60 L 77.90 177.70 L 77.30 179.30 L 76.30 180.60 L 75.00 181.60 L 73.40 182.20 L 71.20 182.40 L 68.30 182.10 L 67.10 181.70 L 65.50 180.50 L 64.00 177.70 L 68.80 177.20 L 69.60 178.90 L 71.10 179.50 L 72.00 179.40 L 72.70 178.80 L 73.20 177.90 L 73.40 176.60 L 73.20 175.20 L 72.70 174.30 L 72.00 173.80 L 70.30 173.70 L 68.60 174.90 L 64.60 174.30 L 66.10 165.10 Z" fill="#ccccde" fill-rule="nonzero" group-id="2,8" node-id="361" stroke="none" target-height="17.299988" target-width="13.900002" target-x="64" target-y="165.1"></path></g><g node-id="652"><path d="M 182.40 171.80 L 182.40 189.10 L 177.60 189.10 L 177.60 177.80 L 175.40 179.20 L 172.70 180.30 L 172.70 176.40 L 176.40 174.50 L 178.50 171.80 L 182.40 171.80 Z" fill="#ccccde" fill-rule="nonzero" group-id="2,9" node-id="366" stroke="none" target-height="17.300003" target-width="9.699997" target-x="172.7" target-y="171.8"></path></g><g node-id="653"><g node-id="682"><path d="M 23.20 59.80 L 166.00 59.80 L 166.00 137.00 L 23.20 137.00 Z" fill="#d3e8df" fill-rule="nonzero" group-id="2,10,39" node-id="373" stroke="none" target-height="77.2" target-width="142.8" target-x="23.2" target-y="59.8"></path><path d="M 166.00 138.50 L 22.60 138.40 L 21.80 137.60 L 21.70 137.00 L 21.70 59.80 L 21.80 59.20 L 22.60 58.40 L 166.60 58.40 L 167.40 59.20 L 167.50 59.80 L 167.50 137.00 L 167.10 138.10 L 166.00 138.50 Z M 24.70 135.50 L 164.50 135.50 L 164.50 61.30 L 24.70 61.30 L 24.70 135.50 Z" fill="#ccccde" fill-rule="nonzero" group-id="2,10,39" node-id="375" stroke="none" target-height="80.1" target-width="145.8" target-x="21.7" target-y="58.4"></path></g><g node-id="683"><path d="M 155.30 77.50 L 153.80 77.30 L 151.40 75.90 L 150.10 73.50 L 149.90 71.00 L 40.20 71.00 L 40.10 73.50 L 38.70 75.90 L 36.30 77.30 L 33.80 77.40 L 33.80 119.50 L 36.30 119.60 L 38.70 121.00 L 40.10 123.30 L 40.20 125.80 L 149.90 125.80 L 150.10 123.30 L 151.40 121.00 L 153.80 119.60 L 155.40 119.40 L 155.30 77.50 Z" fill="#e3ffe8" fill-rule="nonzero" group-id="2,10,40" node-id="380" stroke="none" target-height="54.800003" target-width="121.59999" target-x="33.8" target-y="71"></path><path d="M 150.00 127.30 L 39.50 127.20 L 38.70 126.20 L 38.60 123.60 L 37.40 121.80 L 35.40 120.90 L 33.50 121.00 L 32.50 120.10 L 32.30 119.50 L 32.30 77.40 L 32.90 76.20 L 33.50 75.90 L 35.40 75.90 L 37.40 75.10 L 38.60 73.20 L 38.70 70.70 L 39.00 70.10 L 40.20 69.50 L 150.60 69.70 L 151.40 70.70 L 151.70 73.60 L 152.50 74.80 L 153.70 75.70 L 156.00 76.10 L 156.70 76.90 L 156.90 77.50 L 156.90 119.40 L 156.70 120.00 L 156.00 120.80 L 153.70 121.20 L 152.50 122.10 L 151.70 123.30 L 151.30 126.40 L 150.50 127.20 L 150.00 127.30 Z M 41.80 124.30 L 148.40 124.30 L 148.70 122.80 L 150.10 120.30 L 152.40 118.50 L 153.90 118.10 L 153.90 78.80 L 152.40 78.40 L 150.10 76.60 L 148.60 74.10 L 148.40 72.50 L 41.80 72.50 L 41.40 74.20 L 39.80 77.00 L 37.00 78.60 L 35.30 79.00 L 35.30 117.90 L 37.00 118.30 L 39.70 119.90 L 41.40 122.60 L 41.80 124.30 Z" fill="#ccccde" fill-rule="nonzero" group-id="2,10,40" node-id="382" stroke="none" target-height="57.800003" target-width="124.59999" target-x="32.3" target-y="69.5"></path></g><g node-id="684"><path d="M 108.50 98.40 L 108.20 102.20 L 107.40 105.70 L 106.30 108.90 L 104.60 111.90 L 102.70 114.30 L 100.50 116.40 L 98.00 117.90 L 95.30 118.80 L 92.40 119.20 L 89.50 118.80 L 86.80 117.90 L 84.30 116.40 L 82.10 114.30 L 80.20 111.90 L 78.50 108.90 L 77.40 105.70 L 76.60 102.20 L 76.30 98.40 L 76.60 94.60 L 77.40 91.10 L 78.50 87.90 L 80.20 85.00 L 82.10 82.50 L 84.30 80.50 L 86.80 78.90 L 89.50 78.00 L 92.40 77.70 L 95.30 78.00 L 98.00 78.90 L 100.50 80.50 L 102.70 82.50 L 104.60 85.00 L 106.30 87.90 L 107.40 91.10 L 108.20 94.60 L 108.50 98.40 Z" fill="#d3e8df" fill-rule="nonzero" group-id="2,10,41" node-id="387" stroke="none" target-height="41.5" target-width="32.199997" target-x="76.3" target-y="77.7"></path><path d="M 92.40 120.70 L 90.00 120.50 L 85.60 119.00 L 83.50 117.60 L 81.10 115.50 L 79.00 112.80 L 77.20 109.70 L 76.00 106.20 L 75.10 102.50 L 74.80 98.40 L 75.10 94.30 L 76.00 90.60 L 77.20 87.20 L 79.00 84.00 L 81.10 81.40 L 83.50 79.20 L 85.60 77.90 L 90.00 76.40 L 92.40 76.20 L 97.10 77.00 L 101.30 79.20 L 103.70 81.40 L 105.80 84.00 L 107.60 87.20 L 108.90 90.60 L 109.70 94.30 L 110.00 98.40 L 109.70 102.50 L 108.90 106.20 L 107.60 109.70 L 105.80 112.80 L 103.70 115.50 L 101.30 117.60 L 99.20 119.00 L 94.80 120.50 L 92.40 120.70 Z M 92.40 79.20 L 89.80 79.50 L 87.40 80.40 L 85.10 81.80 L 83.10 83.70 L 81.30 86.00 L 79.80 88.70 L 78.80 91.70 L 78.10 94.90 L 77.80 98.40 L 78.10 102.00 L 78.80 105.20 L 79.80 108.10 L 81.30 110.90 L 83.10 113.20 L 85.10 115.10 L 87.40 116.50 L 89.80 117.40 L 92.40 117.70 L 95.00 117.40 L 97.50 116.50 L 99.70 115.10 L 101.70 113.20 L 103.50 110.90 L 105.00 108.10 L 106.00 105.20 L 106.70 102.00 L 107.00 98.40 L 106.70 94.90 L 106.00 91.70 L 105.00 88.70 L 103.50 86.00 L 101.70 83.70 L 99.70 81.80 L 97.50 80.40 L 95.00 79.50 L 92.40 79.20 Z" fill="#ccccde" fill-rule="nonzero" group-id="2,10,41" node-id="389" stroke="none" target-height="44.5" target-width="35.199997" target-x="74.8" target-y="76.2"></path></g><path d="M 94.40 100.80 L 96.20 98.50 L 98.70 93.80 L 98.90 92.50 L 98.60 90.30 L 97.90 88.50 L 96.90 87.10 L 95.50 86.00 L 93.90 85.30 L 92.10 85.10 L 90.30 85.20 L 88.70 85.70 L 87.00 87.20 L 86.30 88.50 L 85.50 91.90 L 85.50 96.50 L 86.10 98.20 L 88.00 101.00 L 85.90 101.90 L 84.00 103.30 L 82.40 105.00 L 81.30 106.90 L 80.50 109.00 L 80.30 110.90 L 80.50 112.60 L 82.00 115.30 L 84.60 117.20 L 86.40 118.00 L 89.30 118.60 L 92.60 118.90 L 96.00 118.70 L 98.70 118.10 L 100.70 117.20 L 101.90 116.20 L 102.80 115.00 L 103.40 113.50 L 103.60 111.60 L 103.30 109.50 L 102.30 107.20 L 100.90 105.10 L 99.00 103.20 L 96.80 101.70 L 94.40 100.80 Z" fill="#ccccde" fill-rule="nonzero" group-id="2,10" node-id="392" stroke="none" target-height="33.800003" target-width="23.299995" target-x="80.3" target-y="85.1"></path><g node-id="685"><path d="M 32.40 67.50 L 31.40 67.70 L 30.10 69.00 L 30.10 71.00 L 31.40 72.30 L 33.40 72.30 L 34.70 71.00 L 34.70 69.00 L 33.40 67.70 L 32.40 67.50 Z M 157.00 67.50 L 156.10 67.70 L 154.70 69.00 L 154.70 71.00 L 156.10 72.30 L 158.00 72.30 L 159.30 71.00 L 159.30 69.00 L 158.00 67.70 L 157.00 67.50 Z" fill="#ccccde" fill-rule="nonzero" group-id="2,10,42" node-id="396" stroke="none" target-height="4.800003" target-width="129.2" target-x="30.1" target-y="67.5"></path></g><g node-id="686"><path d="M 32.40 124.90 L 30.60 125.60 L 29.90 127.30 L 30.60 129.10 L 32.40 129.80 L 34.10 129.10 L 34.90 127.30 L 34.10 125.60 L 32.40 124.90 Z M 157.00 124.90 L 155.30 125.60 L 154.50 127.30 L 155.30 129.10 L 157.00 129.80 L 158.80 129.10 L 159.50 127.30 L 158.80 125.60 L 157.00 124.90 Z" fill="#ccccde" fill-rule="nonzero" group-id="2,10,43" node-id="401" stroke="none" target-height="4.9000015" target-width="129.6" target-x="29.9" target-y="124.9"></path></g><path d="M 55.30 106.50 L 53.00 106.20 L 50.90 105.30 L 49.20 104.00 L 47.80 102.30 L 47.00 100.20 L 46.70 97.90 L 47.00 95.60 L 47.80 93.60 L 49.20 91.80 L 50.90 90.50 L 53.00 89.60 L 55.30 89.30 L 57.60 89.60 L 59.60 90.50 L 61.30 91.80 L 62.70 93.60 L 63.50 95.60 L 63.90 97.90 L 63.50 100.20 L 62.70 102.30 L 61.30 104.00 L 59.60 105.30 L 57.60 106.20 L 55.30 106.50 Z M 55.30 92.30 L 53.70 92.50 L 51.30 94.00 L 49.90 96.40 L 49.70 97.90 L 50.40 100.70 L 52.40 102.80 L 53.70 103.30 L 55.30 103.50 L 58.10 102.80 L 60.10 100.70 L 60.90 97.90 L 60.60 96.40 L 59.20 94.00 L 56.80 92.50 L 55.30 92.30 Z" fill="#ccccde" fill-rule="nonzero" group-id="2,10" node-id="404" stroke="none" target-height="17.199997" target-width="17.2" target-x="46.7" target-y="89.3"></path><g node-id="687"><path d="M 139.10 97.90 L 138.90 99.80 L 138.10 101.50 L 137.00 102.90 L 135.60 104.10 L 133.90 104.80 L 132.00 105.00 L 130.10 104.80 L 128.40 104.10 L 127.00 102.90 L 125.90 101.50 L 125.20 99.80 L 124.90 97.90 L 125.20 96.00 L 125.90 94.30 L 127.00 92.90 L 128.40 91.80 L 130.10 91.10 L 132.00 90.80 L 133.90 91.10 L 135.60 91.80 L 137.00 92.90 L 138.10 94.30 L 138.90 96.00 L 139.10 97.90 Z" fill="#d3e8df" fill-rule="nonzero" group-id="2,10,44" node-id="408" stroke="none" target-height="14.199997" target-width="14.200005" target-x="124.9" target-y="90.8"></path><path d="M 132.00 106.50 L 129.70 106.20 L 127.70 105.30 L 125.90 104.00 L 124.60 102.30 L 123.70 100.20 L 123.40 97.90 L 123.70 95.60 L 124.60 93.60 L 125.90 91.80 L 127.70 90.50 L 129.70 89.60 L 132.00 89.30 L 134.30 89.60 L 136.40 90.50 L 138.10 91.80 L 139.40 93.60 L 140.30 95.60 L 140.60 97.90 L 140.30 100.20 L 139.40 102.30 L 138.10 104.00 L 136.40 105.30 L 134.30 106.20 L 132.00 106.50 Z M 132.00 92.30 L 130.50 92.50 L 128.10 94.00 L 126.60 96.40 L 126.40 97.90 L 127.20 100.70 L 129.20 102.80 L 130.50 103.30 L 132.00 103.50 L 134.80 102.80 L 136.90 100.70 L 137.60 97.90 L 137.40 96.40 L 136.00 94.00 L 133.50 92.50 L 132.00 92.30 Z" fill="#ccccde" fill-rule="nonzero" group-id="2,10,44" node-id="410" stroke="none" target-height="17.199997" target-width="17.200005" target-x="123.4" target-y="89.3"></path></g></g><g node-id="654"><g node-id="688"><path d="M 61.80 216.60 L 61.40 220.30 L 60.50 223.60 L 59.00 226.70 L 57.10 229.50 L 54.70 231.90 L 51.90 233.90 L 48.80 235.40 L 45.50 236.30 L 41.80 236.60 L 38.20 236.30 L 34.80 235.40 L 31.70 233.90 L 28.90 231.90 L 26.50 229.50 L 24.60 226.70 L 23.10 223.60 L 22.20 220.30 L 21.80 216.60 L 22.20 213.00 L 23.10 209.70 L 24.60 206.60 L 26.50 203.80 L 28.90 201.40 L 31.70 199.40 L 34.80 197.90 L 38.20 197.00 L 41.80 196.70 L 45.50 197.00 L 48.80 197.90 L 51.90 199.40 L 54.70 201.40 L 57.10 203.80 L 59.00 206.60 L 60.50 209.70 L 61.40 213.00 L 61.80 216.60 Z" fill="#ffe2d6" fill-rule="nonzero" group-id="2,11,45" node-id="418" stroke="none" target-height="39.90001" target-width="40" target-x="21.8" target-y="196.7"></path><path d="M 41.80 238.10 L 38.80 237.90 L 33.50 236.40 L 31.00 235.20 L 28.00 233.00 L 25.40 230.50 L 23.30 227.50 L 22.00 225.00 L 20.60 219.60 L 20.30 216.60 L 20.60 213.70 L 22.00 208.30 L 23.30 205.80 L 25.40 202.80 L 28.00 200.20 L 31.00 198.10 L 33.50 196.90 L 38.80 195.40 L 41.80 195.20 L 44.80 195.40 L 50.20 196.90 L 52.60 198.10 L 55.60 200.20 L 58.20 202.80 L 60.30 205.80 L 61.60 208.30 L 63.10 213.70 L 63.30 216.60 L 63.10 219.60 L 61.60 225.00 L 60.30 227.50 L 58.20 230.50 L 55.60 233.00 L 52.60 235.20 L 50.20 236.40 L 44.80 237.90 L 41.80 238.10 Z M 41.80 198.20 L 38.40 198.50 L 35.40 199.30 L 32.50 200.70 L 29.90 202.50 L 27.70 204.70 L 25.90 207.30 L 24.50 210.20 L 23.70 213.30 L 23.30 216.60 L 23.70 220.00 L 24.50 223.10 L 25.90 226.00 L 27.70 228.50 L 29.90 230.70 L 32.50 232.60 L 35.40 234.00 L 38.40 234.80 L 41.80 235.10 L 45.20 234.80 L 48.30 234.00 L 51.10 232.60 L 53.70 230.70 L 55.90 228.50 L 57.70 226.00 L 59.10 223.10 L 60.00 220.00 L 60.30 216.60 L 60.00 213.30 L 59.10 210.20 L 57.70 207.30 L 55.90 204.70 L 53.70 202.50 L 51.10 200.70 L 48.30 199.30 L 45.20 198.50 L 41.80 198.20 Z" fill="#ccccde" fill-rule="nonzero" group-id="2,11,45" node-id="420" stroke="none" target-height="42.90001" target-width="43" target-x="20.3" target-y="195.2"></path></g><g node-id="689"><path d="M 56.10 216.50 L 55.90 219.10 L 55.30 221.50 L 54.20 223.70 L 52.80 225.70 L 51.10 227.40 L 49.10 228.80 L 46.90 229.80 L 44.50 230.50 L 41.90 230.70 L 39.30 230.50 L 37.00 229.80 L 34.80 228.80 L 32.80 227.40 L 31.10 225.70 L 29.70 223.70 L 28.60 221.50 L 28.00 219.10 L 27.70 216.50 L 28.00 213.90 L 28.60 211.50 L 29.70 209.30 L 31.10 207.30 L 32.80 205.70 L 34.80 204.20 L 37.00 203.20 L 39.30 202.50 L 41.90 202.30 L 44.50 202.50 L 46.90 203.20 L 49.10 204.20 L 51.10 205.70 L 52.80 207.30 L 54.20 209.30 L 55.30 211.50 L 55.90 213.90 L 56.10 216.50 Z" fill="#fff6d6" fill-rule="nonzero" group-id="2,11,46" node-id="425" stroke="none" target-height="28.399994" target-width="28.399998" target-x="27.7" target-y="202.3"></path><path d="M 41.90 232.20 L 39.10 231.90 L 36.40 231.20 L 34.00 230.10 L 31.80 228.50 L 29.90 226.60 L 28.40 224.40 L 27.20 222.00 L 26.50 219.40 L 26.20 216.50 L 26.50 213.60 L 27.20 211.00 L 28.40 208.60 L 29.90 206.40 L 31.80 204.50 L 34.00 203.00 L 36.40 201.80 L 39.10 201.10 L 41.90 200.80 L 44.80 201.10 L 47.40 201.80 L 49.90 203.00 L 52.10 204.50 L 53.90 206.40 L 55.50 208.60 L 56.70 211.00 L 57.40 213.60 L 57.60 216.50 L 57.40 219.40 L 56.70 222.00 L 55.50 224.40 L 53.90 226.60 L 52.10 228.50 L 49.90 230.10 L 47.40 231.20 L 44.80 231.90 L 41.90 232.20 Z M 41.90 203.80 L 37.50 204.60 L 33.70 206.80 L 31.00 210.10 L 30.00 212.10 L 29.20 216.50 L 30.00 220.90 L 32.20 224.70 L 35.50 227.50 L 39.60 229.00 L 41.90 229.20 L 44.30 229.00 L 46.40 228.40 L 50.10 226.20 L 52.90 222.90 L 53.80 220.90 L 54.60 216.50 L 53.80 212.10 L 52.90 210.10 L 50.10 206.80 L 46.40 204.60 L 41.90 203.80 Z" fill="#ccccde" fill-rule="nonzero" group-id="2,11,46" node-id="427" stroke="none" target-height="31.399994" target-width="31.399998" target-x="26.2" target-y="200.8"></path></g></g><g node-id="655"><g node-id="690"><path d="M 238.90 107.70 L 238.50 111.40 L 237.60 114.70 L 236.10 117.80 L 234.10 120.60 L 231.80 123.00 L 229.00 125.00 L 225.90 126.40 L 222.50 127.40 L 218.90 127.70 L 215.20 127.40 L 211.90 126.40 L 208.80 125.00 L 206.00 123.00 L 203.60 120.60 L 201.60 117.80 L 200.20 114.70 L 199.30 111.40 L 198.90 107.70 L 199.30 104.10 L 200.20 100.70 L 201.60 97.60 L 203.60 94.80 L 206.00 92.50 L 208.80 90.50 L 211.90 89.00 L 215.20 88.10 L 218.90 87.80 L 222.50 88.10 L 225.90 89.00 L 229.00 90.50 L 231.80 92.50 L 234.10 94.80 L 236.10 97.60 L 237.60 100.70 L 238.50 104.10 L 238.90 107.70 Z" fill="#ffe2d6" fill-rule="nonzero" group-id="2,12,47" node-id="435" stroke="none" target-height="39.899994" target-width="40" target-x="198.9" target-y="87.8"></path><path d="M 218.90 129.20 L 215.90 129.00 L 210.50 127.50 L 208.10 126.30 L 205.00 124.10 L 202.50 121.60 L 200.40 118.60 L 199.10 116.10 L 197.60 110.70 L 197.40 107.70 L 197.60 104.80 L 199.10 99.40 L 200.40 96.90 L 202.50 93.90 L 205.00 91.30 L 208.10 89.20 L 210.50 87.90 L 215.90 86.50 L 218.90 86.30 L 221.90 86.50 L 227.20 87.90 L 229.70 89.20 L 232.70 91.30 L 235.30 93.90 L 237.40 96.90 L 238.70 99.40 L 240.10 104.80 L 240.40 107.70 L 240.10 110.70 L 238.70 116.10 L 237.40 118.60 L 235.30 121.60 L 232.70 124.10 L 229.70 126.30 L 227.20 127.50 L 221.90 129.00 L 218.90 129.20 Z M 218.90 89.30 L 215.50 89.60 L 212.40 90.40 L 209.60 91.80 L 207.00 93.60 L 204.80 95.80 L 202.90 98.40 L 201.60 101.30 L 200.70 104.40 L 200.40 107.70 L 200.70 111.10 L 201.60 114.20 L 202.90 117.00 L 204.80 119.60 L 207.00 121.80 L 209.60 123.70 L 212.40 125.00 L 215.50 125.90 L 218.90 126.20 L 222.20 125.90 L 225.30 125.00 L 228.20 123.70 L 230.80 121.80 L 233.00 119.60 L 234.80 117.00 L 236.20 114.20 L 237.00 111.10 L 237.40 107.70 L 237.00 104.40 L 236.20 101.30 L 234.80 98.40 L 233.00 95.80 L 230.80 93.60 L 228.20 91.80 L 225.30 90.40 L 222.20 89.60 L 218.90 89.30 Z" fill="#ccccde" fill-rule="nonzero" group-id="2,12,47" node-id="437" stroke="none" target-height="42.899994" target-width="43" target-x="197.4" target-y="86.3"></path></g><g node-id="691"><path d="M 233.20 107.60 L 233.00 110.20 L 232.30 112.60 L 231.30 114.80 L 229.90 116.80 L 228.20 118.40 L 226.20 119.90 L 224.00 120.90 L 221.60 121.60 L 219.00 121.80 L 216.40 121.60 L 214.00 120.90 L 211.80 119.90 L 209.80 118.40 L 208.20 116.80 L 206.70 114.80 L 205.70 112.60 L 205.00 110.20 L 204.80 107.60 L 205.00 105.00 L 205.70 102.60 L 206.70 100.40 L 208.20 98.40 L 209.80 96.70 L 211.80 95.30 L 214.00 94.30 L 216.40 93.60 L 219.00 93.40 L 221.60 93.60 L 224.00 94.30 L 226.20 95.30 L 228.20 96.70 L 229.90 98.40 L 231.30 100.40 L 232.30 102.60 L 233.00 105.00 L 233.20 107.60 Z" fill="#fff6d6" fill-rule="nonzero" group-id="2,12,48" node-id="442" stroke="none" target-height="28.400002" target-width="28.399994" target-x="204.8" target-y="93.4"></path><path d="M 219.00 123.30 L 216.20 123.00 L 213.50 122.30 L 211.10 121.20 L 208.90 119.60 L 207.00 117.70 L 205.50 115.50 L 204.30 113.10 L 203.60 110.50 L 203.30 107.60 L 203.60 104.70 L 204.30 102.10 L 205.50 99.70 L 207.00 97.50 L 208.90 95.60 L 211.10 94.00 L 213.50 92.90 L 216.20 92.20 L 219.00 91.90 L 221.90 92.20 L 224.50 92.90 L 226.90 94.00 L 229.10 95.60 L 231.00 97.50 L 232.60 99.70 L 233.70 102.10 L 234.40 104.70 L 234.70 107.60 L 234.40 110.50 L 233.70 113.10 L 232.60 115.50 L 231.00 117.70 L 229.10 119.60 L 226.90 121.20 L 224.50 122.30 L 221.90 123.00 L 219.00 123.30 Z M 219.00 94.90 L 214.60 95.70 L 210.80 97.90 L 208.00 101.20 L 207.10 103.20 L 206.30 107.60 L 207.10 112.00 L 208.00 114.00 L 210.80 117.30 L 214.60 119.50 L 219.00 120.30 L 223.50 119.50 L 225.40 118.60 L 228.70 115.80 L 230.90 112.00 L 231.70 107.60 L 230.90 103.20 L 230.00 101.20 L 227.20 97.90 L 223.50 95.70 L 219.00 94.90 Z" fill="#ccccde" fill-rule="nonzero" group-id="2,12,48" node-id="444" stroke="none" target-height="31.400002" target-width="31.399994" target-x="203.3" target-y="91.9"></path></g></g><g node-id="656"><g node-id="692"><path d="M 69.30 154.70 L 69.00 158.30 L 68.10 161.70 L 66.60 164.80 L 64.60 167.60 L 62.20 169.90 L 59.40 171.90 L 56.30 173.40 L 53.00 174.30 L 49.30 174.60 L 45.70 174.30 L 42.30 173.40 L 39.30 171.90 L 36.50 169.90 L 34.10 167.60 L 32.10 164.80 L 30.60 161.70 L 29.70 158.30 L 29.40 154.70 L 29.70 151.00 L 30.60 147.70 L 32.10 144.60 L 34.10 141.80 L 36.50 139.40 L 39.30 137.40 L 42.30 136.00 L 45.70 135.10 L 49.30 134.70 L 53.00 135.10 L 56.30 136.00 L 59.40 137.40 L 62.20 139.40 L 64.60 141.80 L 66.60 144.60 L 68.10 147.70 L 69.00 151.00 L 69.30 154.70 Z" fill="#ffe2d6" fill-rule="nonzero" group-id="2,13,49" node-id="452" stroke="none" target-height="39.90001" target-width="39.9" target-x="29.4" target-y="134.7"></path><path d="M 49.30 176.10 L 46.40 175.90 L 41.00 174.50 L 38.50 173.20 L 35.50 171.10 L 32.90 168.50 L 30.80 165.50 L 29.50 163.00 L 28.10 157.60 L 27.90 154.70 L 28.10 151.70 L 29.50 146.30 L 30.80 143.90 L 32.90 140.80 L 35.50 138.30 L 38.50 136.10 L 43.60 134.00 L 46.40 133.40 L 49.30 133.20 L 55.10 134.00 L 60.20 136.10 L 63.20 138.30 L 65.70 140.80 L 67.90 143.90 L 69.10 146.30 L 70.60 151.70 L 70.80 154.70 L 70.60 157.60 L 69.10 163.00 L 67.90 165.50 L 65.70 168.50 L 63.20 171.10 L 60.20 173.20 L 57.70 174.50 L 52.30 175.90 L 49.30 176.10 Z M 49.30 136.20 L 46.00 136.50 L 42.90 137.40 L 40.00 138.70 L 37.40 140.60 L 35.20 142.80 L 33.40 145.40 L 32.00 148.20 L 31.20 151.30 L 30.90 154.70 L 31.20 158.00 L 32.00 161.10 L 33.40 164.00 L 35.20 166.60 L 37.40 168.80 L 40.00 170.60 L 42.90 172.00 L 46.00 172.80 L 49.30 173.10 L 52.70 172.80 L 55.80 172.00 L 58.60 170.60 L 61.20 168.80 L 63.40 166.60 L 65.30 164.00 L 66.60 161.10 L 67.50 158.00 L 67.80 154.70 L 67.50 151.30 L 66.60 148.20 L 65.30 145.40 L 63.40 142.80 L 61.20 140.60 L 58.60 138.70 L 55.80 137.40 L 52.70 136.50 L 49.30 136.20 Z" fill="#ccccde" fill-rule="nonzero" group-id="2,13,49" node-id="454" stroke="none" target-height="42.90001" target-width="42.9" target-x="27.9" target-y="133.2"></path></g><g node-id="693"><path d="M 63.70 154.60 L 63.40 157.10 L 62.80 159.50 L 61.70 161.70 L 60.30 163.70 L 58.60 165.40 L 56.60 166.80 L 54.40 167.90 L 52.10 168.50 L 49.50 168.80 L 46.90 168.50 L 44.50 167.90 L 42.30 166.80 L 40.30 165.40 L 38.60 163.70 L 37.20 161.70 L 36.10 159.50 L 35.50 157.10 L 35.30 154.60 L 35.50 152.00 L 36.10 149.60 L 37.20 147.40 L 38.60 145.40 L 40.30 143.70 L 42.30 142.30 L 44.50 141.20 L 46.90 140.60 L 49.50 140.30 L 52.10 140.60 L 54.40 141.20 L 56.60 142.30 L 58.60 143.70 L 60.30 145.40 L 61.70 147.40 L 62.80 149.60 L 63.40 152.00 L 63.70 154.60 Z" fill="#fff6d6" fill-rule="nonzero" group-id="2,13,50" node-id="459" stroke="none" target-height="28.5" target-width="28.400002" target-x="35.3" target-y="140.3"></path><path d="M 49.50 170.30 L 46.60 170.00 L 44.00 169.30 L 41.50 168.10 L 39.30 166.50 L 37.50 164.70 L 35.90 162.50 L 34.70 160.00 L 34.00 157.40 L 33.80 154.60 L 34.00 151.70 L 34.70 149.10 L 35.90 146.60 L 37.50 144.40 L 39.30 142.60 L 41.50 141.00 L 44.00 139.80 L 46.60 139.10 L 49.50 138.80 L 52.30 139.10 L 54.90 139.80 L 57.40 141.00 L 59.60 142.60 L 61.50 144.40 L 63.00 146.60 L 64.20 149.10 L 64.90 151.70 L 65.20 154.60 L 64.90 157.40 L 64.20 160.00 L 63.00 162.50 L 61.50 164.70 L 59.60 166.50 L 57.40 168.10 L 54.90 169.30 L 52.30 170.00 L 49.50 170.30 Z M 49.50 141.80 L 45.00 142.60 L 43.10 143.60 L 39.80 146.40 L 37.60 150.10 L 36.80 154.60 L 37.60 159.00 L 38.50 161.00 L 41.30 164.30 L 45.00 166.50 L 49.50 167.30 L 53.90 166.50 L 55.90 165.50 L 59.20 162.70 L 61.40 159.00 L 62.20 154.60 L 61.40 150.10 L 59.20 146.40 L 55.90 143.60 L 53.90 142.60 L 49.50 141.80 Z" fill="#ccccde" fill-rule="nonzero" group-id="2,13,50" node-id="461" stroke="none" target-height="31.5" target-width="31.399998" target-x="33.8" target-y="138.8"></path></g></g><g node-id="657"><g node-id="694"><g node-id="706"><path d="M 17.70 42.00 L 160.30 51.00 L 155.40 128.10 L 12.90 119.10 Z" fill="#d3e8df" fill-rule="nonzero" group-id="2,14,51,63" node-id="471" stroke="none" target-height="86.100006" target-width="147.40001" target-x="12.9" target-y="42"></path></g><path d="M 155.40 129.60 L 12.20 120.50 L 11.70 120.10 L 11.40 119.00 L 16.20 42.00 L 16.40 41.40 L 17.20 40.60 L 160.90 49.70 L 161.70 50.50 L 161.80 51.10 L 156.90 128.20 L 156.40 129.20 L 155.40 129.60 Z M 14.50 117.70 L 154.00 126.50 L 158.70 52.40 L 19.10 43.60 L 14.50 117.70 Z" fill="#ccccde" fill-rule="nonzero" group-id="2,14,51" node-id="474" stroke="none" target-height="89.00001" target-width="150.40001" target-x="11.4" target-y="40.6"></path></g><g node-id="695"><path d="M 148.40 68.00 L 147.00 67.70 L 144.70 66.20 L 143.50 63.70 L 143.50 61.20 L 34.00 54.30 L 33.70 56.80 L 32.20 59.10 L 29.80 60.30 L 27.20 60.20 L 24.60 102.30 L 27.10 102.60 L 29.40 104.10 L 30.60 106.50 L 30.50 109.00 L 140.10 115.90 L 140.30 113.40 L 141.90 111.20 L 144.30 110.00 L 145.90 109.80 L 148.40 68.00 Z" fill="#e3ffe8" fill-rule="nonzero" group-id="2,14,52" node-id="479" stroke="none" target-height="61.600002" target-width="123.799995" target-x="24.6" target-y="54.3"></path><path d="M 140.10 117.40 L 29.80 110.30 L 29.10 109.30 L 29.00 106.40 L 28.20 105.10 L 27.00 104.10 L 24.10 103.70 L 23.20 102.80 L 23.10 102.20 L 25.70 60.10 L 26.40 59.00 L 27.00 58.80 L 29.90 58.70 L 31.20 57.90 L 32.10 56.80 L 32.50 53.90 L 32.90 53.30 L 34.10 52.80 L 144.20 59.90 L 145.00 60.90 L 145.10 63.90 L 145.80 65.20 L 147.00 66.10 L 149.20 66.70 L 149.90 67.50 L 150.00 68.10 L 147.40 109.90 L 147.20 110.50 L 146.30 111.30 L 144.00 111.60 L 142.80 112.40 L 141.90 113.50 L 141.50 116.50 L 140.70 117.30 L 140.10 117.40 Z M 32.20 107.60 L 138.60 114.30 L 139.00 112.80 L 140.60 110.40 L 143.00 108.80 L 144.50 108.40 L 146.90 69.30 L 145.50 68.70 L 143.30 66.80 L 142.00 64.20 L 141.80 62.60 L 35.50 55.90 L 35.00 57.60 L 33.20 60.20 L 30.40 61.70 L 28.60 61.90 L 26.20 100.80 L 29.20 102.00 L 30.50 103.10 L 31.40 104.50 L 32.20 107.60 Z" fill="#ccccde" fill-rule="nonzero" group-id="2,14,52" node-id="481" stroke="none" target-height="64.600006" target-width="126.9" target-x="23.1" target-y="52.8"></path></g><g node-id="696"><g node-id="707"><path d="M 85.70 64.20 L 88.50 64.70 L 91.20 65.80 L 93.60 67.60 L 95.70 69.70 L 97.40 72.30 L 98.90 75.40 L 99.80 78.60 L 100.40 82.10 L 100.40 85.90 L 99.90 89.70 L 98.90 93.20 L 97.60 96.30 L 95.70 99.10 L 93.70 101.50 L 91.30 103.30 L 88.70 104.70 L 86.00 105.50 L 83.10 105.70 L 80.20 105.10 L 77.60 104.00 L 75.20 102.30 L 73.10 100.20 L 71.30 97.60 L 69.90 94.50 L 68.90 91.30 L 68.40 87.80 L 68.30 83.90 L 68.90 80.10 L 69.80 76.70 L 71.20 73.60 L 73.00 70.70 L 75.10 68.40 L 77.40 66.50 L 80.00 65.10 L 82.80 64.40 L 85.70 64.20 Z" fill="#d3e8df" fill-rule="nonzero" group-id="2,14,53,64" node-id="488" stroke="none" target-height="41.5" target-width="32.1" target-x="68.3" target-y="64.2"></path></g><path d="M 83.90 107.20 L 80.60 106.80 L 78.40 106.10 L 74.30 103.60 L 72.00 101.20 L 70.10 98.50 L 68.50 95.20 L 67.50 91.70 L 66.90 87.90 L 66.80 83.80 L 67.40 79.80 L 68.40 76.10 L 69.90 72.80 L 71.90 69.70 L 74.20 67.20 L 76.70 65.20 L 78.80 64.00 L 83.30 62.80 L 85.80 62.70 L 90.30 63.80 L 92.50 64.90 L 96.20 68.00 L 97.90 70.20 L 100.30 74.90 L 101.10 77.50 L 101.90 83.10 L 101.90 86.00 L 101.40 90.00 L 100.40 93.50 L 99.00 96.80 L 97.10 99.80 L 95.00 102.30 L 92.50 104.30 L 89.80 105.90 L 86.90 106.80 L 83.90 107.20 Z M 84.90 65.70 L 82.30 66.00 L 79.90 66.80 L 77.70 68.20 L 75.60 69.90 L 73.90 72.10 L 72.30 74.70 L 71.10 77.50 L 70.30 80.60 L 69.80 84.00 L 69.90 87.60 L 70.30 90.80 L 71.20 93.80 L 72.50 96.70 L 74.10 99.10 L 76.00 101.10 L 78.20 102.70 L 80.60 103.70 L 83.20 104.20 L 85.80 104.00 L 88.30 103.30 L 90.70 102.00 L 92.80 100.20 L 94.70 98.10 L 96.30 95.40 L 97.60 92.50 L 98.40 89.40 L 98.90 85.90 L 98.90 82.00 L 98.20 78.30 L 97.10 74.90 L 95.40 71.80 L 94.00 70.10 L 91.00 67.50 L 87.50 66.00 L 84.90 65.70 Z" fill="#ccccde" fill-rule="nonzero" group-id="2,14,53" node-id="491" stroke="none" target-height="44.499996" target-width="35.1" target-x="66.8" target-y="62.7"></path></g><path d="M 86.20 87.40 L 88.20 85.30 L 90.90 80.70 L 91.20 79.40 L 91.10 77.20 L 90.50 75.40 L 89.60 73.90 L 88.30 72.70 L 86.70 72.00 L 84.90 71.60 L 83.10 71.60 L 81.50 72.00 L 79.70 73.40 L 78.90 74.60 L 77.90 78.00 L 77.60 82.50 L 78.10 84.30 L 79.80 87.20 L 77.60 88.00 L 75.70 89.30 L 74.00 90.90 L 72.70 92.70 L 71.90 94.70 L 71.50 96.70 L 71.60 98.30 L 72.90 101.10 L 75.40 103.20 L 77.10 104.10 L 80.00 104.90 L 83.30 105.40 L 86.70 105.40 L 89.40 104.90 L 91.40 104.20 L 92.80 103.30 L 93.70 102.10 L 94.40 100.60 L 94.70 98.80 L 94.50 96.70 L 93.70 94.40 L 92.40 92.10 L 90.70 90.10 L 88.60 88.50 L 86.20 87.40 Z" fill="#ccccde" fill-rule="nonzero" group-id="2,14" node-id="494" stroke="none" target-height="33.800003" target-width="23.199997" target-x="71.5" target-y="71.6"></path><g node-id="697"><path d="M 26.40 50.30 L 25.40 50.40 L 24.00 51.60 L 23.90 53.60 L 25.10 55.00 L 27.10 55.10 L 28.50 53.90 L 28.60 51.90 L 27.40 50.50 L 26.40 50.30 Z M 150.80 58.10 L 149.80 58.30 L 148.40 59.50 L 148.30 61.40 L 149.60 62.80 L 151.50 63.00 L 152.90 61.70 L 153.00 59.80 L 151.80 58.40 L 150.80 58.10 Z" fill="#ccccde" fill-rule="nonzero" group-id="2,14,54" node-id="498" stroke="none" target-height="12.700001" target-width="129.1" target-x="23.9" target-y="50.3"></path></g><g node-id="698"><path d="M 22.80 107.50 L 21.80 107.70 L 20.40 108.90 L 20.30 110.80 L 21.50 112.20 L 23.50 112.40 L 24.90 111.10 L 25.00 109.20 L 23.80 107.80 L 22.80 107.50 Z M 147.20 115.40 L 145.40 116.00 L 144.60 117.70 L 145.20 119.50 L 146.90 120.30 L 148.70 119.70 L 149.50 118.00 L 148.90 116.20 L 147.20 115.40 Z" fill="#ccccde" fill-rule="nonzero" group-id="2,14,55" node-id="503" stroke="none" target-height="12.800003" target-width="129.2" target-x="20.3" target-y="107.5"></path></g><path d="M 47.30 90.70 L 45.00 90.40 L 43.00 89.50 L 41.20 88.20 L 39.90 86.40 L 39.00 84.40 L 38.70 82.10 L 39.00 79.80 L 39.90 77.80 L 41.20 76.00 L 43.00 74.70 L 45.00 73.80 L 47.30 73.50 L 49.60 73.80 L 51.70 74.70 L 53.40 76.00 L 54.80 77.80 L 55.60 79.80 L 55.90 82.10 L 55.60 84.40 L 54.80 86.40 L 53.40 88.20 L 51.70 89.50 L 49.60 90.40 L 47.30 90.70 Z M 47.30 76.50 L 45.80 76.70 L 43.40 78.10 L 41.90 80.60 L 41.70 82.10 L 42.50 84.90 L 44.50 86.90 L 45.80 87.50 L 47.30 87.70 L 50.10 86.90 L 52.20 84.90 L 52.90 82.10 L 52.70 80.60 L 51.30 78.10 L 48.80 76.70 L 47.30 76.50 Z" fill="#ccccde" fill-rule="nonzero" group-id="2,14" node-id="506" stroke="none" target-height="17.199997" target-width="17.2" target-x="38.7" target-y="73.5"></path><g node-id="699"><path d="M 131.00 86.90 L 130.80 88.80 L 130.10 90.50 L 129.00 91.90 L 127.50 93.10 L 125.80 93.80 L 123.90 94.00 L 122.00 93.80 L 120.40 93.10 L 118.90 91.90 L 117.80 90.50 L 117.10 88.80 L 116.80 86.90 L 117.10 85.00 L 117.80 83.30 L 118.90 81.90 L 120.40 80.80 L 122.00 80.10 L 123.90 79.80 L 125.80 80.10 L 127.50 80.80 L 129.00 81.90 L 130.10 83.30 L 130.80 85.00 L 131.00 86.90 Z" fill="#d3e8df" fill-rule="nonzero" group-id="2,14,56" node-id="510" stroke="none" target-height="14.199997" target-width="14.199997" target-x="116.8" target-y="79.8"></path><path d="M 123.90 95.50 L 121.60 95.20 L 119.60 94.40 L 117.90 93.00 L 116.50 91.30 L 115.60 89.20 L 115.30 86.90 L 115.60 84.60 L 116.50 82.60 L 117.90 80.80 L 119.60 79.50 L 121.60 78.60 L 123.90 78.30 L 126.20 78.60 L 128.30 79.50 L 130.00 80.80 L 131.40 82.60 L 132.20 84.60 L 132.50 86.90 L 132.20 89.20 L 131.40 91.30 L 130.00 93.00 L 128.30 94.40 L 126.20 95.20 L 123.90 95.50 Z M 123.90 81.30 L 122.40 81.50 L 120.00 83.00 L 118.60 85.40 L 118.30 86.90 L 119.10 89.70 L 121.10 91.80 L 122.40 92.30 L 123.90 92.50 L 126.80 91.80 L 128.80 89.70 L 129.50 86.90 L 129.30 85.40 L 127.90 83.00 L 125.50 81.50 L 123.90 81.30 Z" fill="#ccccde" fill-rule="nonzero" group-id="2,14,56" node-id="512" stroke="none" target-height="17.199997" target-width="17.199997" target-x="115.3" target-y="78.3"></path></g></g><g node-id="658"><g node-id="700"><path d="M 175.10 111.50 L 174.50 112.70 L 172.60 114.40 L 170.20 115.00 L 168.80 114.80 L 67.40 83.50 L 65.20 82.10 L 64.00 79.80 L 64.10 77.20 L 85.60 7.50 L 86.10 6.30 L 88.00 4.60 L 90.50 4.00 L 91.80 4.20 L 193.30 35.60 L 195.50 37.00 L 196.70 39.20 L 196.60 41.80 L 175.10 111.50 Z" fill="#e6eeff" fill-rule="nonzero" group-id="2,15,57" node-id="520" stroke="none" target-height="111" target-width="132.7" target-x="64" target-y="4"></path><path d="M 170.30 116.50 L 168.40 116.20 L 66.90 84.90 L 65.30 84.10 L 64.00 83.10 L 63.10 81.70 L 62.50 80.20 L 62.30 78.50 L 62.60 76.80 L 84.10 7.10 L 84.70 5.80 L 86.50 3.80 L 88.90 2.70 L 90.30 2.50 L 92.20 2.80 L 193.70 34.10 L 195.30 34.90 L 196.60 35.90 L 197.60 37.30 L 198.10 38.90 L 198.30 40.50 L 198.00 42.30 L 176.50 111.90 L 175.90 113.20 L 174.20 115.20 L 171.70 116.30 L 170.30 116.50 Z M 90.30 5.50 L 88.30 6.20 L 87.00 8.00 L 65.50 77.70 L 65.40 79.00 L 65.70 80.30 L 66.60 81.30 L 67.80 82.00 L 169.30 113.30 L 171.40 113.30 L 172.40 112.80 L 173.60 111.00 L 195.20 41.40 L 195.30 40.00 L 194.90 38.70 L 194.10 37.70 L 192.80 37.00 L 90.30 5.50 Z" fill="#ccccde" fill-rule="nonzero" group-id="2,15,57" node-id="522" stroke="none" target-height="114" target-width="136" target-x="62.3" target-y="2.5"></path></g><g node-id="701"><g node-id="708"><path d="M 82.50 17.60 L 193.40 51.90 L 187.70 70.50 L 76.70 36.20 Z" fill="#d8d8f0" fill-rule="nonzero" group-id="2,15,58,65" node-id="529" stroke="none" target-height="52.9" target-width="116.7" target-x="76.7" target-y="17.6"></path></g><path d="M 188.70 72.40 L 74.80 37.20 L 81.50 15.80 L 195.30 50.90 L 188.70 72.40 Z M 78.60 35.20 L 186.70 68.60 L 191.60 52.90 L 83.40 19.50 L 78.60 35.20 Z" fill="#ccccde" fill-rule="nonzero" group-id="2,15,58" node-id="532" stroke="none" target-height="56.600002" target-width="120.5" target-x="74.8" target-y="15.8"></path></g><g node-id="702"><path d="M 80.50 53.20 L 175.40 82.50 L 170.70 97.70 L 75.80 68.50 Z" fill="#ffe7d1" fill-rule="nonzero" group-id="2,15,59" node-id="537" stroke="none" target-height="44.499996" target-width="99.59999" target-x="75.8" target-y="53.2"></path></g><g node-id="703"><path d="M 75.80 68.50 L 95.80 57.90 L 101.40 59.60 L 81.40 70.20 Z" fill="#ffffff" fill-rule="nonzero" group-id="2,15,60" node-id="542" stroke="none" target-height="12.299995" target-width="25.599998" target-x="75.8" target-y="57.9"></path><path d="M 90.60 73.00 L 110.60 62.50 L 116.20 64.20 L 96.20 74.80 Z" fill="#ffffff" fill-rule="nonzero" group-id="2,15,60" node-id="544" stroke="none" target-height="12.300003" target-width="25.599998" target-x="90.6" target-y="62.5"></path><path d="M 105.40 77.60 L 125.40 67.00 L 131.00 68.80 L 111.00 79.30 Z" fill="#ffffff" fill-rule="nonzero" group-id="2,15,60" node-id="546" stroke="none" target-height="12.300003" target-width="25.599998" target-x="105.4" target-y="67"></path><path d="M 120.20 82.20 L 140.20 71.60 L 145.80 73.30 L 125.80 83.90 Z" fill="#ffffff" fill-rule="nonzero" group-id="2,15,60" node-id="548" stroke="none" target-height="12.300003" target-width="25.600006" target-x="120.2" target-y="71.6"></path><path d="M 135.00 86.70 L 155.00 76.20 L 160.60 77.90 L 140.60 88.50 Z" fill="#ffffff" fill-rule="nonzero" group-id="2,15,60" node-id="550" stroke="none" target-height="12.300003" target-width="25.600006" target-x="135" target-y="76.2"></path><path d="M 149.80 91.30 L 169.80 80.80 L 175.40 82.50 L 155.40 93.00 Z" fill="#ffffff" fill-rule="nonzero" group-id="2,15,60" node-id="552" stroke="none" target-height="12.199997" target-width="25.59999" target-x="149.8" target-y="80.8"></path></g></g></g><g node-id="646"><g node-id="659"><path d="M 127.50 243.00 L 130.00 238.80 L 132.40 236.40 L 134.80 234.80 L 135.60 233.10 L 134.80 231.50 L 131.80 229.40 L 129.90 227.60 L 128.20 225.70 L 126.50 222.80 L 125.90 222.20 L 124.60 222.20 L 120.60 227.60 L 118.70 229.40 L 115.70 231.50 L 115.20 232.30 L 115.20 234.00 L 115.70 234.80 L 119.40 237.50 L 121.60 240.20 L 122.50 241.70 L 124.20 246.20 L 124.80 246.80 L 125.80 246.80 L 126.30 246.20 L 127.50 243.00 Z" fill="#ffd25f" fill-rule="nonzero" group-id="3,16" node-id="560" stroke="none" target-height="24.600006" target-width="20.40001" target-x="115.2" target-y="222.2"></path></g><g node-id="660"><path d="M 196.50 26.00 L 199.00 21.80 L 201.40 19.40 L 203.80 17.80 L 204.60 16.10 L 203.80 14.50 L 200.80 12.40 L 198.90 10.60 L 197.20 8.70 L 195.50 5.80 L 194.90 5.20 L 193.60 5.20 L 189.60 10.60 L 187.70 12.40 L 184.70 14.50 L 184.20 15.30 L 184.20 17.00 L 184.70 17.80 L 188.40 20.50 L 190.60 23.20 L 191.50 24.70 L 193.20 29.20 L 193.80 29.80 L 194.80 29.80 L 195.30 29.20 L 196.50 26.00 Z" fill="#dec2ff" fill-rule="nonzero" group-id="3,17" node-id="565" stroke="none" target-height="24.599998" target-width="20.40001" target-x="184.2" target-y="5.2"></path></g><g node-id="661"><path d="M 244.10 168.90 L 245.70 166.20 L 249.00 163.30 L 249.20 162.50 L 249.00 161.70 L 245.60 159.00 L 243.20 155.70 L 242.60 155.50 L 242.00 155.70 L 239.70 159.00 L 236.30 161.70 L 236.10 162.50 L 236.30 163.30 L 239.60 166.20 L 240.60 167.50 L 242.20 171.10 L 242.60 171.40 L 243.10 171.10 L 244.10 168.90 Z" fill="#a8ffd1" fill-rule="nonzero" group-id="3,18" node-id="570" stroke="none" target-height="15.899994" target-width="13.099991" target-x="236.1" target-y="155.5"></path></g><path d="M 16.80 130.10 L 18.30 127.40 L 21.60 124.50 L 21.90 123.70 L 21.60 123.00 L 18.30 120.20 L 15.90 116.90 L 15.30 116.70 L 14.70 116.90 L 12.40 120.20 L 9.00 123.00 L 8.70 123.70 L 9.00 124.50 L 12.30 127.40 L 13.30 128.70 L 14.80 132.30 L 15.30 132.60 L 15.80 132.30 L 16.80 130.10 Z" fill="#ffc2c2" fill-rule="nonzero" group-id="3,19" node-id="575" stroke="none" target-height="15.900009" target-width="13.2" target-x="8.7" target-y="116.7"></path></g><g node-id="647"><g node-id="663"><path d="M 199.60 105.10 L 198.80 100.60 L 197.90 98.60 L 195.10 95.20 L 191.30 93.00 L 186.80 92.20 L 58.30 92.20 L 53.80 93.00 L 50.00 95.20 L 47.20 98.60 L 46.20 100.60 L 45.40 105.10 L 45.40 198.10 L 45.60 200.80 L 46.20 203.10 L 47.00 205.10 L 48.20 206.90 L 49.70 208.30 L 51.50 209.40 L 53.70 210.00 L 56.30 210.30 L 182.40 210.30 L 187.10 209.50 L 191.30 207.30 L 194.80 204.10 L 196.80 201.10 L 198.30 197.80 L 199.30 194.30 L 199.60 190.80 L 199.60 105.10 Z" fill="#c7b0a9" fill-rule="nonzero" group-id="4,20" node-id="582" stroke="none" target-height="118.100006" target-width="154.20001" target-x="45.4" target-y="92.2"></path><path d="M 182.40 211.80 L 56.30 211.80 L 53.50 211.50 L 51.10 210.80 L 49.10 209.70 L 47.30 208.10 L 45.90 206.20 L 44.80 203.90 L 44.20 201.30 L 43.90 198.10 L 43.90 105.10 L 44.20 102.40 L 44.80 100.00 L 45.90 97.80 L 47.30 95.80 L 49.00 94.10 L 51.00 92.70 L 53.20 91.60 L 55.60 90.90 L 58.30 90.70 L 186.80 90.70 L 189.40 90.90 L 191.80 91.60 L 194.00 92.70 L 196.00 94.10 L 197.70 95.80 L 199.20 97.80 L 200.20 100.00 L 200.90 102.40 L 201.10 105.10 L 201.00 193.30 L 200.50 195.80 L 198.70 200.70 L 195.90 205.00 L 194.10 206.90 L 190.00 209.90 L 187.60 210.90 L 185.10 211.60 L 182.40 211.80 Z M 58.30 93.70 L 54.30 94.40 L 52.50 95.30 L 49.60 97.70 L 47.60 101.10 L 46.90 105.10 L 47.10 200.70 L 48.40 204.50 L 50.70 207.20 L 52.30 208.10 L 54.10 208.60 L 56.30 208.80 L 182.40 208.80 L 184.90 208.50 L 187.30 207.80 L 189.80 206.50 L 192.00 204.80 L 194.00 202.70 L 195.70 200.20 L 197.00 197.40 L 197.80 194.30 L 198.10 190.80 L 198.10 105.10 L 197.90 103.00 L 196.60 99.30 L 194.10 96.40 L 192.50 95.30 L 188.80 93.90 L 186.80 93.70 L 58.30 93.70 Z" fill="#6e6e96" fill-rule="nonzero" group-id="4,20" node-id="584" stroke="none" target-height="121.100006" target-width="157.20001" target-x="43.9" target-y="90.7"></path></g><g node-id="664"><path d="M 45.40 93.40 L 45.40 198.10 L 45.70 200.60 L 46.10 196.90 L 46.70 195.50 L 47.70 194.40 L 49.20 193.40 L 51.20 192.60 L 56.30 191.80 L 171.30 191.60 L 175.10 190.80 L 177.30 190.00 L 181.00 187.80 L 183.40 184.90 L 184.80 181.10 L 185.00 178.50 L 185.00 90.10 L 184.00 85.60 L 183.20 83.80 L 181.10 81.50 L 178.60 80.50 L 58.30 80.50 L 53.80 81.30 L 50.00 83.50 L 47.20 86.90 L 46.20 88.90 L 45.40 93.40 Z" fill="#d9c0b8" fill-rule="nonzero" group-id="4,21" node-id="589" stroke="none" target-height="120.100006" target-width="139.6" target-x="45.4" target-y="80.5"></path><path d="M 44.20 200.90 L 43.90 198.10 L 43.90 93.40 L 44.20 90.70 L 44.80 88.30 L 45.90 86.10 L 47.30 84.10 L 49.00 82.40 L 51.00 81.00 L 53.20 79.90 L 55.60 79.30 L 58.30 79.00 L 178.60 79.00 L 181.70 80.10 L 184.30 82.70 L 185.20 84.70 L 186.50 90.00 L 186.50 178.50 L 186.30 181.40 L 185.70 183.70 L 184.70 185.70 L 182.00 189.00 L 177.50 191.60 L 172.00 193.00 L 55.70 193.40 L 52.60 193.80 L 49.40 195.00 L 47.70 196.80 L 47.30 198.40 L 47.20 200.60 L 44.20 200.90 Z M 58.30 82.00 L 54.30 82.70 L 50.90 84.70 L 48.50 87.60 L 47.10 91.30 L 46.90 193.10 L 49.80 191.50 L 51.90 190.90 L 55.40 190.40 L 60.20 190.20 L 171.30 190.10 L 174.80 189.40 L 178.80 187.60 L 180.60 186.10 L 182.10 184.10 L 183.30 180.80 L 183.50 90.20 L 182.60 86.10 L 181.90 84.70 L 181.10 83.40 L 179.90 82.50 L 178.50 82.00 L 58.30 82.00 Z" fill="#6e6e96" fill-rule="nonzero" group-id="4,21" node-id="591" stroke="none" target-height="121.899994" target-width="142.6" target-x="43.9" target-y="79"></path></g><g node-id="665"><path d="M 57.90 179.00 L 57.80 95.90 L 58.10 94.40 L 58.80 92.90 L 60.30 91.60 L 63.40 90.60 L 65.90 90.40 L 173.40 90.40 L 173.40 86.30 L 173.10 83.00 L 172.50 80.50 L 56.00 80.70 L 51.30 83.10 L 49.00 84.60 L 47.20 86.40 L 46.30 87.80 L 45.90 89.30 L 45.90 188.30 L 46.80 185.50 L 47.90 183.70 L 49.40 182.00 L 51.50 180.50 L 53.20 179.80 L 57.90 179.00 Z" fill="#fafafa" fill-opacity="0.25" fill-rule="nonzero" group-id="4,22" node-id="596" stroke="none" target-height="107.8" target-width="127.49999" target-x="45.9" target-y="80.5"></path></g><g node-id="666"><path d="M 179.00 79.60 L 58.70 79.60 L 54.20 80.40 L 50.40 82.60 L 47.60 86.00 L 46.70 88.00 L 45.90 92.50 L 45.90 197.20 L 46.10 199.70 L 46.50 196.00 L 47.20 194.60 L 48.20 193.50 L 49.60 192.50 L 51.70 191.70 L 56.80 190.90 L 170.10 190.80 L 175.50 189.90 L 177.80 189.10 L 181.50 186.90 L 183.90 184.00 L 184.70 182.30 L 185.50 177.60 L 185.50 89.20 L 185.00 86.40 L 183.60 82.90 L 181.60 80.50 L 179.00 79.60 Z M 173.40 168.50 L 172.70 172.70 L 172.00 174.30 L 170.40 176.30 L 168.60 177.80 L 166.50 178.80 L 161.10 180.20 L 57.30 180.50 L 54.30 181.00 L 50.40 182.50 L 49.00 183.80 L 48.10 185.20 L 47.60 186.90 L 47.50 189.00 L 48.10 186.10 L 48.10 92.00 L 48.80 88.00 L 50.80 84.60 L 53.80 82.10 L 57.50 80.70 L 167.60 80.50 L 169.90 81.40 L 171.80 83.50 L 172.50 85.10 L 173.40 89.20 L 173.40 168.50 Z" fill="#6e6e96" fill-opacity="0.15" fill-rule="nonzero" group-id="4,23" node-id="601" stroke="none" target-height="120.1" target-width="139.6" target-x="45.9" target-y="79.6"></path></g><g node-id="667"><path d="M 56.30 210.30 L 54.50 206.80 L 53.90 203.80 L 54.10 202.40 L 54.90 201.30 L 56.80 200.40 L 173.20 200.20 L 180.00 198.70 L 182.80 197.70 L 185.60 196.40 L 188.20 194.60 L 190.40 192.40 L 191.40 190.70 L 192.10 188.80 L 192.40 186.50 L 192.40 157.90 L 196.60 157.90 L 196.60 150.30 L 185.00 150.30 L 185.00 178.50 L 185.50 181.30 L 185.20 183.10 L 183.80 185.60 L 182.30 187.00 L 178.20 189.30 L 171.30 191.00 L 160.60 191.70 L 57.20 191.70 L 54.00 192.00 L 50.20 193.30 L 48.40 194.50 L 47.00 196.10 L 45.80 198.90 L 45.60 200.90 L 45.90 203.30 L 46.40 205.10 L 47.30 206.50 L 49.00 208.20 L 51.00 209.30 L 53.00 210.00 L 56.30 210.30 Z" fill="#6e6e96" fill-opacity="0.15" fill-rule="nonzero" group-id="4,24" node-id="606" stroke="none" target-height="60" target-width="151" target-x="45.6" target-y="150.3"></path></g><g node-id="668"><path d="M 186.50 93.50 L 191.90 93.50 L 191.90 120.40 L 186.50 120.40 Z" fill="#6e6e96" fill-opacity="0.15" fill-rule="nonzero" group-id="4,25" node-id="611" stroke="none" target-height="26.900002" target-width="5.399994" target-x="186.5" target-y="93.5"></path></g><g node-id="669"><path d="M 152.30 135.50 L 153.10 139.70 L 155.40 145.40 L 157.40 148.50 L 159.10 150.30 L 163.60 153.40 L 166.30 154.50 L 169.50 155.20 L 173.40 155.50 L 173.40 147.50 L 166.00 144.80 L 156.70 140.30 L 153.20 137.50 L 152.30 135.50 Z" fill="#6e6e96" fill-opacity="0.15" fill-rule="nonzero" group-id="4,26" node-id="616" stroke="none" target-height="20" target-width="21.09999" target-x="152.3" target-y="135.5"></path></g><g node-id="670"><path d="M 93.50 98.80 L 101.80 98.80 L 101.80 95.00 L 93.50 95.00 L 93.50 98.80 Z M 57.70 98.80 L 66.00 98.80 L 66.00 95.00 L 57.70 95.00 L 57.70 98.80 Z M 75.60 98.80 L 83.90 98.80 L 83.90 95.00 L 75.60 95.00 L 75.60 98.80 Z M 129.30 98.80 L 137.60 98.80 L 137.60 95.00 L 129.30 95.00 L 129.30 98.80 Z M 111.40 98.80 L 119.70 98.80 L 119.70 95.00 L 111.40 95.00 L 111.40 98.80 Z M 147.20 98.80 L 155.50 98.80 L 155.50 95.00 L 147.20 95.00 L 147.20 98.80 Z M 165.10 95.00 L 165.10 98.80 L 173.40 98.80 L 173.40 95.00 L 165.10 95.00 Z M 165.10 173.10 L 173.40 173.10 L 173.40 169.30 L 165.10 169.30 L 165.10 173.10 Z M 75.60 173.10 L 83.90 173.10 L 83.90 169.30 L 75.60 169.30 L 75.60 173.10 Z M 129.30 173.10 L 137.60 173.10 L 137.60 169.30 L 129.30 169.30 L 129.30 173.10 Z M 57.70 173.10 L 66.00 173.10 L 66.00 169.30 L 57.70 169.30 L 57.70 173.10 Z M 93.50 173.10 L 101.80 173.10 L 101.80 169.30 L 93.50 169.30 L 93.50 173.10 Z M 147.20 173.10 L 155.50 173.10 L 155.50 169.30 L 147.20 169.30 L 147.20 173.10 Z M 111.40 173.10 L 119.70 173.10 L 119.70 169.30 L 111.40 169.30 L 111.40 173.10 Z" fill="#6e6e96" fill-opacity="0.39" fill-rule="nonzero" group-id="4,27" node-id="621" stroke="none" target-height="78.100006" target-width="115.7" target-x="57.7" target-y="95"></path></g><path d="M 44.20 200.90 L 43.90 198.10 L 43.90 93.40 L 44.20 90.70 L 44.80 88.30 L 45.90 86.10 L 47.30 84.10 L 49.00 82.40 L 51.00 81.00 L 53.20 79.90 L 55.60 79.30 L 58.30 79.00 L 178.60 79.00 L 181.70 80.10 L 184.30 82.70 L 185.20 84.70 L 186.50 90.00 L 186.50 178.50 L 186.30 181.40 L 185.70 183.70 L 184.70 185.70 L 182.00 189.00 L 177.50 191.60 L 172.00 193.00 L 55.70 193.40 L 52.60 193.80 L 49.40 195.00 L 47.70 196.80 L 47.30 198.40 L 47.20 200.60 L 44.20 200.90 Z M 58.30 82.00 L 54.30 82.70 L 50.90 84.70 L 48.50 87.60 L 47.10 91.30 L 46.90 193.10 L 49.80 191.50 L 51.90 190.90 L 55.40 190.40 L 60.20 190.20 L 171.30 190.10 L 174.80 189.40 L 178.80 187.60 L 180.60 186.10 L 182.10 184.10 L 183.30 180.80 L 183.50 90.20 L 182.60 86.10 L 181.90 84.70 L 181.10 83.40 L 179.90 82.50 L 178.50 82.00 L 58.30 82.00 Z" fill="#6e6e96" fill-rule="nonzero" group-id="4" node-id="624" stroke="none" target-height="121.899994" target-width="142.6" target-x="43.9" target-y="79"></path><g node-id="671"><path d="M 204.70 133.80 L 204.60 142.90 L 203.70 146.60 L 202.00 148.60 L 200.80 149.30 L 197.00 149.90 L 170.00 149.90 L 167.10 149.60 L 164.40 148.90 L 161.90 147.70 L 159.70 146.10 L 157.70 144.20 L 156.10 142.00 L 155.00 139.50 L 154.20 136.80 L 154.00 133.80 L 154.20 130.90 L 155.00 128.20 L 156.10 125.70 L 157.70 123.50 L 159.70 121.60 L 161.90 120.00 L 164.40 118.80 L 167.10 118.10 L 170.00 117.80 L 197.00 117.80 L 200.80 118.40 L 202.90 120.00 L 204.20 122.50 L 204.80 127.60 L 204.70 133.80 Z" fill="#f0f0ff" fill-rule="nonzero" group-id="4,28" node-id="628" stroke="none" target-height="32.09999" target-width="50.800003" target-x="154" target-y="117.8"></path><path d="M 197.00 151.40 L 170.00 151.40 L 166.80 151.10 L 163.90 150.30 L 161.20 149.00 L 158.70 147.30 L 156.60 145.20 L 154.90 142.70 L 153.60 140.00 L 152.70 137.00 L 152.50 133.80 L 152.70 130.60 L 153.60 127.70 L 154.90 125.00 L 156.60 122.50 L 158.70 120.40 L 161.20 118.70 L 163.90 117.40 L 166.80 116.60 L 170.00 116.30 L 197.00 116.30 L 201.00 116.90 L 203.70 118.60 L 204.80 120.00 L 205.60 121.80 L 206.00 123.90 L 206.20 127.20 L 206.00 143.80 L 205.60 145.90 L 204.80 147.60 L 203.70 149.10 L 201.00 150.80 L 197.00 151.40 Z M 170.00 119.30 L 167.40 119.50 L 164.90 120.20 L 162.70 121.30 L 160.60 122.70 L 158.90 124.50 L 157.40 126.50 L 156.40 128.80 L 155.70 131.20 L 155.50 133.80 L 155.70 136.50 L 156.40 138.90 L 157.40 141.20 L 158.90 143.20 L 160.60 145.00 L 162.70 146.40 L 164.90 147.50 L 167.40 148.20 L 170.00 148.40 L 199.10 148.20 L 200.60 147.70 L 201.60 147.00 L 202.30 146.00 L 203.10 142.90 L 203.30 140.00 L 203.10 124.80 L 202.30 121.70 L 201.60 120.70 L 200.60 119.90 L 199.10 119.50 L 197.00 119.30 L 170.00 119.30 Z" fill="#6e6e96" fill-rule="nonzero" group-id="4,28" node-id="630" stroke="none" target-height="35.09999" target-width="53.699997" target-x="152.5" target-y="116.3"></path></g><g node-id="672"><path d="M 176.30 133.50 L 176.10 135.10 L 174.60 137.60 L 172.10 139.10 L 170.50 139.30 L 167.60 138.50 L 165.50 136.40 L 164.90 135.10 L 164.70 133.50 L 165.50 130.60 L 167.60 128.50 L 170.50 127.70 L 172.10 127.90 L 174.60 129.40 L 176.10 131.90 L 176.30 133.50 Z" fill="#ccccde" fill-rule="nonzero" group-id="4,29" node-id="635" stroke="none" target-height="11.600006" target-width="11.600006" target-x="164.7" target-y="127.7"></path><path d="M 170.50 140.80 L 168.50 140.50 L 166.80 139.80 L 165.30 138.70 L 164.20 137.20 L 163.50 135.40 L 163.20 133.50 L 163.50 131.50 L 164.20 129.80 L 165.30 128.30 L 166.80 127.20 L 168.50 126.50 L 170.50 126.20 L 172.40 126.50 L 174.20 127.20 L 175.60 128.30 L 176.80 129.80 L 177.50 131.50 L 177.80 133.50 L 177.50 135.40 L 176.80 137.20 L 175.60 138.70 L 174.20 139.80 L 172.40 140.50 L 170.50 140.80 Z M 170.50 129.20 L 169.30 129.40 L 167.50 130.50 L 166.40 132.30 L 166.20 133.50 L 166.80 135.70 L 168.30 137.20 L 169.30 137.60 L 170.50 137.80 L 172.70 137.20 L 174.20 135.70 L 174.80 133.50 L 174.60 132.30 L 173.50 130.50 L 171.70 129.40 L 170.50 129.20 Z" fill="#6e6e96" fill-rule="nonzero" group-id="4,29" node-id="637" stroke="none" target-height="14.600006" target-width="14.600006" target-x="163.2" target-y="126.2"></path></g><path d="M 198.40 117.80 L 171.40 117.80 L 168.40 118.10 L 165.80 118.80 L 163.30 120.00 L 161.00 121.60 L 159.10 123.50 L 157.50 125.70 L 156.30 128.20 L 155.60 130.90 L 155.30 133.80 L 155.60 136.80 L 156.30 139.50 L 157.50 142.00 L 159.10 144.20 L 161.00 146.10 L 163.30 147.70 L 165.80 148.90 L 168.40 149.60 L 171.40 149.90 L 198.40 149.90 L 202.10 149.30 L 204.30 147.70 L 205.60 145.20 L 206.10 140.10 L 206.10 127.60 L 205.60 122.50 L 205.00 121.10 L 203.30 119.00 L 200.50 118.00 L 198.40 117.80 Z M 194.90 143.60 L 169.30 143.60 L 165.20 142.90 L 161.80 140.90 L 159.30 137.90 L 158.40 136.10 L 157.70 132.00 L 157.90 129.90 L 158.40 128.00 L 160.40 124.60 L 163.50 122.00 L 167.20 120.60 L 194.90 120.40 L 197.00 120.70 L 198.30 121.20 L 199.90 123.10 L 200.50 126.20 L 200.30 139.60 L 199.20 142.10 L 198.30 142.90 L 197.00 143.40 L 194.90 143.60 Z" fill="#6e6e96" fill-opacity="0.15" fill-rule="nonzero" group-id="4,30" node-id="642" stroke="none" target-height="32.09999" target-width="50.800003" target-x="155.3" target-y="117.8"></path></g></svg>